<svg width="68" height="68" viewBox="0 0 68 68" fill="none" xmlns="http://www.w3.org/2000/svg">
<rect opacity="0.9" width="68" height="68" rx="20" fill="#FFF2F6"/>
<mask id="mask0_3210_29829" style="mask-type:alpha" maskUnits="userSpaceOnUse" x="14" y="14" width="40" height="40">
<rect x="14" y="14" width="40" height="40" fill="#BDBDBD"/>
</mask>
<g mask="url(#mask0_3210_29829)">
<path fill-rule="evenodd" clip-rule="evenodd" d="M48.4083 37.2349V43.3931L45.5418 47.8755L42.3205 50.0655L38.391 51.2557L34.8487 50.8281H32.0614L26.8227 47.8755L22.6713 44.2944L19.2316 39.4799L17.3034 32.1741L16.4384 25.4235L20.3804 24.1265L26.8227 20.9278L33.9431 21.6455L35.9003 24.1265L42.3205 29.6991L48.8293 34.3931L48.4083 37.2349Z" fill="white"/>
<path fill-rule="evenodd" clip-rule="evenodd" d="M28.457 48.8218C28.457 48.8218 20.5249 48.4756 17.5042 40.6011C16.1236 37.3307 12.4756 39.7342 16.7026 44.314C14.8211 45.2646 15.2003 47.6876 19.5237 47.54C17.645 49.3194 21.1707 52.5011 31.5196 50.8033" fill="white"/>
<path d="M28.457 48.8218C28.457 48.8218 20.5249 48.4756 17.5042 40.6011C16.1236 37.3307 12.4756 39.7342 16.7026 44.314C14.8211 45.2646 15.2003 47.6876 19.5237 47.54C17.645 49.3194 21.1707 52.5011 31.5196 50.8033" stroke="black" stroke-width="1.5" stroke-linecap="round" stroke-linejoin="round"/>
<path fill-rule="evenodd" clip-rule="evenodd" d="M38.6466 28.5564C37.1486 24.8639 34.5412 22.1487 32.2396 20.3255C31.1378 19.4527 28.2074 19.461 28.2074 19.461L26.8799 20.9278L21.6875 23.3798H19.6487C19.6487 23.3798 16.2944 24.8391 16.6011 28.2937C17.3006 36.1727 20.7444 49.3826 35.8118 51.2557" fill="white"/>
<path d="M38.6466 28.5564C37.1486 24.8639 34.5412 22.1487 32.2396 20.3255C31.1378 19.4527 28.2074 19.461 28.2074 19.461L26.8799 20.9278L21.6875 23.3798H19.6487C19.6487 23.3798 16.2944 24.8391 16.6011 28.2937C17.3006 36.1727 20.7444 49.3826 35.8118 51.2557" stroke="black" stroke-width="1.5" stroke-linecap="round" stroke-linejoin="round"/>
<path d="M28.5999 28.5041L29.4393 30.3043" stroke="black" stroke-width="0.8" stroke-linecap="round" stroke-linejoin="round"/>
<path fill-rule="evenodd" clip-rule="evenodd" d="M25.2458 28.7365C25.4147 29.0987 25.2581 29.5291 24.8959 29.698C24.534 29.8668 24.1036 29.7101 23.9347 29.3479C23.7658 28.9857 23.9225 28.5553 24.2843 28.3865C24.6465 28.2176 25.0769 28.3743 25.2458 28.7365" fill="black"/>
<path fill-rule="evenodd" clip-rule="evenodd" d="M32.244 25.4732C32.4129 25.8354 32.2562 26.2658 31.894 26.4347C31.5322 26.6035 31.1018 26.4468 30.9329 26.0846C30.764 25.7224 30.9206 25.2919 31.2825 25.1232C31.6447 24.9543 32.0751 25.111 32.244 25.4732" fill="black"/>
<ellipse cx="28.4978" cy="28.2854" rx="1.4478" ry="0.723901" transform="rotate(-25 28.4978 28.2854)" fill="black"/>
<path fill-rule="evenodd" clip-rule="evenodd" d="M19.4597 23.5401L20.6678 26.1309C21.231 27.3387 20.7084 28.7744 19.5006 29.3376C18.2928 29.9008 16.8571 29.3782 16.2939 28.1704L15.0858 25.5797L19.4597 23.5401Z" fill="white" stroke="black" stroke-width="1.5" stroke-linecap="round" stroke-linejoin="round"/>
<path fill-rule="evenodd" clip-rule="evenodd" d="M28.3963 19.3729L29.6044 21.9637C30.1676 23.1715 31.6033 23.694 32.8111 23.1308C34.0189 22.5676 34.5415 21.1319 33.9782 19.9241L32.7701 17.3333L28.3963 19.3729Z" fill="white" stroke="black" stroke-width="1.5" stroke-linecap="round" stroke-linejoin="round"/>
<path fill-rule="evenodd" clip-rule="evenodd" d="M53.5468 24.3533C55.1563 29.4333 52.3424 34.8568 47.2627 36.4668C42.1822 38.0762 36.7586 35.2624 35.1491 30.1823C33.5397 25.1018 36.3531 19.6787 41.4332 18.0693C46.5138 16.4593 51.9368 19.2732 53.5468 24.3533" fill="#FF4081"/>
<path d="M34.3324 28.0495L35.9002 32.9994" stroke="black" stroke-width="1.5" stroke-linecap="round" stroke-linejoin="round"/>
<path fill-rule="evenodd" clip-rule="evenodd" d="M35.8393 33.0358L35.2403 33.22C34.5605 33.4289 33.8344 33.0637 33.6187 32.4034L33.0045 30.5214C32.7888 29.861 33.1655 29.1563 33.8458 28.9468L34.4448 28.7626L35.8393 33.0358Z" fill="white" stroke="black" stroke-width="1.5" stroke-linecap="round" stroke-linejoin="round"/>
<path fill-rule="evenodd" clip-rule="evenodd" d="M32.292 33.206L33.7308 32.7835L33.0554 30.8052L31.6166 31.2282C31.0272 31.401 30.7011 31.9838 30.8878 32.5301C31.0746 33.0768 31.7036 33.3792 32.292 33.206Z" fill="white" stroke="black" stroke-width="1.5" stroke-linecap="round" stroke-linejoin="round"/>
<path d="M43.3849 17.4323L44.2037 20.0171" stroke="black" stroke-width="1.5" stroke-linecap="round" stroke-linejoin="round"/>
<path d="M41.571 18.007L42.3903 20.5917" stroke="black" stroke-width="1.5" stroke-linecap="round" stroke-linejoin="round"/>
<path d="M39.7578 18.5814L40.577 21.1661" stroke="black" stroke-width="1.5" stroke-linecap="round" stroke-linejoin="round"/>
<path fill-rule="evenodd" clip-rule="evenodd" d="M31.2845 35.7654L34.8335 33.0008C35.8232 32.2303 37.2497 32.4077 38.0206 33.3974C39.6977 35.5502 35.1343 39.4799 35.1343 39.4799" fill="white"/>
<path d="M31.2845 35.7654L34.8335 33.0008C35.8232 32.2303 37.2497 32.4077 38.0206 33.3974C39.6977 35.5502 35.1343 39.4799 35.1343 39.4799" stroke="black" stroke-width="1.5" stroke-linecap="round" stroke-linejoin="round"/>
<path fill-rule="evenodd" clip-rule="evenodd" d="M39.003 42.1301C39.003 42.1301 40.0045 36.0009 45.7623 37.412C45.7623 37.412 45.3555 34.3571 47.8891 34.2613C48.4014 34.2419 48.8293 34.6572 48.8293 35.1703V39.6395C48.8293 46.0549 43.6285 51.2556 37.2131 51.2556H35.8118" fill="white"/>
<path d="M39.003 42.1301C39.003 42.1301 40.0045 36.0009 45.7623 37.412C45.7623 37.412 45.3555 34.3571 47.8891 34.2613C48.4014 34.2419 48.8293 34.6572 48.8293 35.1703V39.6395C48.8293 46.0549 43.6285 51.2556 37.2131 51.2556H35.8118" stroke="black" stroke-width="1.5" stroke-linecap="round" stroke-linejoin="round"/>
</g>
</svg>
