<svg width="68" height="68" viewBox="0 0 68 68" fill="none" xmlns="http://www.w3.org/2000/svg">
<rect opacity="0.9" width="68" height="68" rx="20" fill="#FFF2F6"/>
<mask id="mask0_3210_29835" style="mask-type:alpha" maskUnits="userSpaceOnUse" x="14" y="14" width="40" height="40">
<rect x="14" y="14" width="40" height="40" fill="#BDBDBD"/>
</mask>
<g mask="url(#mask0_3210_29835)">
<path fill-rule="evenodd" clip-rule="evenodd" d="M19.273 36.0528L15.9166 46.6194L17.5948 48.6139L21.4967 50.8082L25.0973 51.7808L32.3593 52.5704H37.6376L44.3722 51.7808L49.8148 49.7639L52.3333 47.1641V45.7177L48.9772 36.0528L48.9771 34.7622L46.7194 33.2818L44.3722 32.1613L42.8003 31.8509L29.9149 31.4998L23.802 32.5585L21.4967 33.2818L19.7538 34.7622L19.273 36.0528Z" fill="white"/>
<path d="M19.2371 35.8016C19.2371 33.4805 25.8146 31.5992 33.929 31.5992C42.0435 31.5992 48.6218 33.4805 48.6218 35.8016" stroke="black" stroke-width="1.5" stroke-linecap="round" stroke-linejoin="round"/>
<path fill-rule="evenodd" clip-rule="evenodd" d="M42.3992 39.6419C40.1537 39.9292 37.8073 40.2732 34.3379 40.2732C30.8889 40.2732 29.4645 40.1787 26.4327 39.6419C25.6831 38.3091 25.1271 36.822 25.1271 35.184C25.1271 30.0974 29.2507 25.9736 34.3379 25.9736C39.4244 25.9736 43.548 30.0974 43.548 35.184C43.548 36.8011 43.1312 38.3209 42.3992 39.6419Z" fill="#FF4081"/>
<path fill-rule="evenodd" clip-rule="evenodd" d="M48.6216 35.8016C48.6216 37.1592 46.1159 38.3578 42.292 39.0771C39.9178 39.524 37.0373 39.7863 33.9292 39.7863C30.8212 39.7863 27.9403 39.524 25.5664 39.0771C21.743 38.3578 19.2368 37.1592 19.2368 35.8016C19.2368 35.8016 15.9167 46.2217 15.9167 46.7392C15.9167 50.0072 23.9812 52.6556 33.9292 52.6556C43.8772 52.6556 51.9418 50.0072 51.9418 46.7392C51.9418 46.4213 48.6216 35.8016 48.6216 35.8016Z" stroke="black" stroke-width="1.5" stroke-linecap="round" stroke-linejoin="round"/>
<path fill-rule="evenodd" clip-rule="evenodd" d="M40.7848 45.3155C40.7848 45.651 40.6951 45.9656 40.5384 46.2365C40.6951 46.5075 40.7848 46.8221 40.7848 47.1576C40.7848 48.175 39.9601 48.9997 38.9427 48.9997C38.2609 48.9997 37.6656 48.6292 37.3471 48.0786H31.328C31.0095 48.6292 30.4142 48.9997 29.7323 48.9997C28.715 48.9997 27.8903 48.175 27.8903 47.1576C27.8903 46.8221 27.98 46.5075 28.1367 46.2365C27.98 45.9656 27.8903 45.651 27.8903 45.3155C27.8903 44.2982 28.715 43.4734 29.7324 43.4734C30.4142 43.4734 31.0095 43.8439 31.328 44.3944H37.3471C37.6656 43.8438 38.2609 43.4734 38.9427 43.4734C39.9601 43.4734 40.7848 44.2981 40.7848 45.3155Z" fill="white"/>
<path d="M40.5384 46.2365L39.8892 45.861C39.7548 46.0933 39.7548 46.3798 39.8892 46.6121L40.5384 46.2365ZM37.3471 48.0786L37.9963 47.7031C37.8622 47.4713 37.6148 47.3286 37.3471 47.3286V48.0786ZM31.328 48.0786V47.3286C31.0603 47.3286 30.8129 47.4713 30.6788 47.7031L31.328 48.0786ZM28.1367 46.2365L28.7859 46.6121C28.9203 46.3798 28.9203 46.0933 28.7859 45.861L28.1367 46.2365ZM31.328 44.3944L30.6788 44.77C30.8129 45.0017 31.0603 45.1444 31.328 45.1444V44.3944ZM37.3471 44.3944V45.1444C37.6148 45.1444 37.8622 45.0017 37.9963 44.77L37.3471 44.3944ZM41.1876 46.6121C41.4086 46.2301 41.5348 45.7864 41.5348 45.3155H40.0348C40.0348 45.5156 39.9817 45.7011 39.8892 45.861L41.1876 46.6121ZM41.5348 47.1576C41.5348 46.6867 41.4086 46.243 41.1876 45.861L39.8892 46.6121C39.9817 46.772 40.0348 46.9574 40.0348 47.1576H41.5348ZM38.9427 49.7497C40.3743 49.7497 41.5348 48.5892 41.5348 47.1576H40.0348C40.0348 47.7608 39.5459 48.2497 38.9427 48.2497V49.7497ZM36.6979 48.4542C37.1449 49.227 37.9823 49.7497 38.9427 49.7497V48.2497C38.5395 48.2497 38.1862 48.0315 37.9963 47.7031L36.6979 48.4542ZM37.3471 47.3286H31.328V48.8286H37.3471V47.3286ZM30.6788 47.7031C30.4888 48.0315 30.1356 48.2497 29.7323 48.2497V49.7497C30.6927 49.7497 31.5302 49.227 31.9772 48.4542L30.6788 47.7031ZM29.7323 48.2497C29.1292 48.2497 28.6403 47.7608 28.6403 47.1576H27.1403C27.1403 48.5892 28.3008 49.7497 29.7323 49.7497V48.2497ZM28.6403 47.1576C28.6403 46.9574 28.6934 46.772 28.7859 46.6121L27.4875 45.861C27.2665 46.243 27.1403 46.6867 27.1403 47.1576H28.6403ZM28.7859 45.861C28.6934 45.7011 28.6403 45.5157 28.6403 45.3155H27.1403C27.1403 45.7864 27.2665 46.2301 27.4875 46.6121L28.7859 45.861ZM28.6403 45.3155C28.6403 44.7124 29.1292 44.2234 29.7324 44.2234V42.7234C28.3008 42.7234 27.1403 43.8839 27.1403 45.3155H28.6403ZM29.7324 44.2234C30.1356 44.2234 30.4888 44.4416 30.6788 44.77L31.9772 44.0189C31.5301 43.2461 30.6927 42.7234 29.7324 42.7234V44.2234ZM31.328 45.1444H37.3471V43.6444H31.328V45.1444ZM38.9427 42.7234C37.9824 42.7234 37.1449 43.2461 36.6979 44.0189L37.9963 44.77C38.1863 44.4416 38.5395 44.2234 38.9427 44.2234V42.7234ZM41.5348 45.3155C41.5348 43.8839 40.3743 42.7234 38.9427 42.7234V44.2234C39.5459 44.2234 40.0348 44.7123 40.0348 45.3155H41.5348Z" fill="black"/>
<path d="M26.4273 17.6653H32.9767" stroke="black" stroke-width="1.5" stroke-linecap="round" stroke-linejoin="round"/>
<path d="M28.1147 14.816L31.2889 20.3141" stroke="black" stroke-width="1.5" stroke-linecap="round" stroke-linejoin="round"/>
<path d="M28.1147 20.314L31.2889 14.8159" stroke="black" stroke-width="1.5" stroke-linecap="round" stroke-linejoin="round"/>
<path d="M36.095 25.2368H42.6444" stroke="black" stroke-width="1.5" stroke-linecap="round" stroke-linejoin="round"/>
<path d="M37.7828 22.3876L40.9569 27.8857" stroke="black" stroke-width="1.5" stroke-linecap="round" stroke-linejoin="round"/>
<path d="M37.7828 27.8855L40.9569 22.3875" stroke="black" stroke-width="1.5" stroke-linecap="round" stroke-linejoin="round"/>
<path d="M24.7003 36.6224H31.2493" stroke="black" stroke-width="1.5" stroke-linecap="round" stroke-linejoin="round"/>
<path d="M26.3877 33.7733L29.4499 39.0769" stroke="black" stroke-width="1.5" stroke-linecap="round" stroke-linejoin="round"/>
<path d="M26.6234 38.8631L29.5621 33.7734" stroke="black" stroke-width="1.5" stroke-linecap="round" stroke-linejoin="round"/>
<path d="M48.6217 35.8016C48.6217 38.1227 42.0437 39.7644 33.9293 39.7644C25.8148 39.7644 19.2369 38.1227 19.2369 35.8016" stroke="black" stroke-width="1.5" stroke-linecap="round" stroke-linejoin="round"/>
</g>
</svg>
