<svg width="68" height="68" viewBox="0 0 68 68" fill="none" xmlns="http://www.w3.org/2000/svg">
<rect opacity="0.9" width="68" height="68" rx="20" fill="#FFF2F6"/>
<mask id="mask0_3210_29833" style="mask-type:alpha" maskUnits="userSpaceOnUse" x="14" y="14" width="40" height="40">
<rect x="14" y="14" width="40" height="40" fill="#BDBDBD"/>
</mask>
<g mask="url(#mask0_3210_29833)">
<path fill-rule="evenodd" clip-rule="evenodd" d="M19.273 36.0528L15.9166 46.6194L17.5948 48.6139L21.4967 50.8082L25.0973 51.7808L32.3593 52.5704H37.6376L44.3722 51.7808L49.8148 49.7639L52.3333 47.1641V45.7177L48.9772 36.0528L48.9771 34.7622L46.7194 33.2818L44.3722 32.1613L42.8003 31.8509L29.9149 31.4998L23.802 32.5585L21.4967 33.2818L19.7538 34.7622L19.273 36.0528Z" fill="white"/>
<path d="M19.2371 35.8016C19.2371 33.4806 25.8146 31.5992 33.929 31.5992C42.0435 31.5992 48.6218 33.4806 48.6218 35.8016" stroke="black" stroke-width="1.5" stroke-linecap="round" stroke-linejoin="round"/>
<path fill-rule="evenodd" clip-rule="evenodd" d="M42.3992 39.6419C40.1537 39.9293 37.8073 40.2733 34.3379 40.2733C30.8889 40.2733 29.4645 40.1788 26.4327 39.6419C25.6831 38.3092 25.1271 36.8221 25.1271 35.1841C25.1271 30.0974 29.2507 25.9736 34.3379 25.9736C39.4244 25.9736 43.548 30.0974 43.548 35.1841C43.548 36.8012 43.1312 38.321 42.3992 39.6419Z" fill="#FF4081"/>
<path fill-rule="evenodd" clip-rule="evenodd" d="M48.6216 35.8016C48.6216 37.1592 46.1159 38.3578 42.292 39.0771C39.9178 39.524 37.0373 39.7863 33.9292 39.7863C30.8212 39.7863 27.9403 39.524 25.5664 39.0771C21.743 38.3578 19.2368 37.1592 19.2368 35.8016C19.2368 35.8016 15.9167 46.2217 15.9167 46.7392C15.9167 50.0072 23.9812 52.6556 33.9292 52.6556C43.8772 52.6556 51.9418 50.0072 51.9418 46.7392C51.9418 46.4213 48.6216 35.8016 48.6216 35.8016Z" stroke="black" stroke-width="1.5" stroke-linecap="round" stroke-linejoin="round"/>
<path d="M28.008 33.1131C28.008 33.1131 25.1825 36.0092 25.1825 37.5957C25.1825 38.0632 25.2922 38.5046 25.487 38.8946L30.1111 39.5133C30.5597 39.0047 30.8327 38.3328 30.8327 37.5957C30.8327 36.0092 28.008 33.1131 28.008 33.1131Z" fill="white" stroke="black" stroke-width="1.5" stroke-linecap="round" stroke-linejoin="round"/>
<path d="M48.6217 35.8016C48.6217 38.1227 42.0437 39.7644 33.9293 39.7644C25.8148 39.7644 19.2369 38.1227 19.2369 35.8016" stroke="black" stroke-width="1.5" stroke-linecap="round" stroke-linejoin="round"/>
<path fill-rule="evenodd" clip-rule="evenodd" d="M40.7848 45.3155C40.7848 45.651 40.6951 45.9656 40.5383 46.2366C40.6951 46.5075 40.7848 46.8221 40.7848 47.1576C40.7848 48.175 39.9601 48.9997 38.9427 48.9997C38.2609 48.9997 37.6655 48.6293 37.347 48.0786H31.328C31.0095 48.6293 30.4141 48.9997 29.7323 48.9997C28.7149 48.9997 27.8902 48.175 27.8902 47.1576C27.8902 46.8221 27.9799 46.5075 28.1367 46.2365C27.9799 45.9656 27.8902 45.651 27.8902 45.3155C27.8902 44.2981 28.715 43.4734 29.7323 43.4734C30.4142 43.4734 31.0095 43.8439 31.328 44.3945H37.347C37.6655 43.8438 38.2609 43.4734 38.9427 43.4734C39.9601 43.4734 40.7848 44.2981 40.7848 45.3155Z" fill="white"/>
<path d="M40.5383 46.2366L39.8891 45.861C39.7547 46.0933 39.7547 46.3798 39.8891 46.6121L40.5383 46.2366ZM37.347 48.0786L37.9962 47.7031C37.8622 47.4714 37.6148 47.3286 37.347 47.3286V48.0786ZM31.328 48.0786V47.3286C31.0602 47.3286 30.8128 47.4714 30.6787 47.7031L31.328 48.0786ZM28.1367 46.2365L28.7859 46.6121C28.9203 46.3798 28.9203 46.0933 28.7859 45.861L28.1367 46.2365ZM31.328 44.3945L30.6788 44.77C30.8128 45.0017 31.0602 45.1445 31.328 45.1445V44.3945ZM37.347 44.3945V45.1445C37.6148 45.1445 37.8622 45.0017 37.9962 44.77L37.347 44.3945ZM41.1875 46.6121C41.4085 46.2301 41.5348 45.7864 41.5348 45.3155H40.0348C40.0348 45.5156 39.9816 45.7011 39.8891 45.861L41.1875 46.6121ZM41.5348 47.1576C41.5348 46.6867 41.4085 46.243 41.1875 45.861L39.8891 46.6121C39.9816 46.772 40.0348 46.9575 40.0348 47.1576H41.5348ZM38.9427 49.7497C40.3743 49.7497 41.5348 48.5892 41.5348 47.1576H40.0348C40.0348 47.7608 39.5458 48.2497 38.9427 48.2497V49.7497ZM36.6978 48.4542C37.1449 49.227 37.9823 49.7497 38.9427 49.7497V48.2497C38.5394 48.2497 38.1862 48.0315 37.9962 47.7031L36.6978 48.4542ZM37.347 47.3286H31.328V48.8286H37.347V47.3286ZM30.6787 47.7031C30.4888 48.0315 30.1356 48.2497 29.7323 48.2497V49.7497C30.6927 49.7497 31.5301 49.227 31.9772 48.4542L30.6787 47.7031ZM29.7323 48.2497C29.1291 48.2497 28.6402 47.7608 28.6402 47.1576H27.1402C27.1402 48.5892 28.3007 49.7497 29.7323 49.7497V48.2497ZM28.6402 47.1576C28.6402 46.9574 28.6934 46.772 28.7859 46.6121L27.4875 45.861C27.2665 46.243 27.1402 46.6867 27.1402 47.1576H28.6402ZM28.7859 45.861C28.6934 45.7011 28.6402 45.5157 28.6402 45.3155H27.1402C27.1402 45.7864 27.2665 46.2301 27.4875 46.6121L28.7859 45.861ZM28.6402 45.3155C28.6402 44.7124 29.1292 44.2234 29.7323 44.2234V42.7234C28.3007 42.7234 27.1402 43.8839 27.1402 45.3155H28.6402ZM29.7323 44.2234C30.1356 44.2234 30.4888 44.4416 30.6788 44.77L31.9772 44.0189C31.5301 43.2461 30.6927 42.7234 29.7323 42.7234V44.2234ZM31.328 45.1445H37.347V43.6445H31.328V45.1445ZM38.9427 42.7234C37.9823 42.7234 37.1449 43.2461 36.6978 44.0189L37.9962 44.77C38.1862 44.4416 38.5394 44.2234 38.9427 44.2234V42.7234ZM41.5348 45.3155C41.5348 43.8839 40.3743 42.7234 38.9427 42.7234V44.2234C39.5458 44.2234 40.0348 44.7123 40.0348 45.3155H41.5348Z" fill="black"/>
<path fill-rule="evenodd" clip-rule="evenodd" d="M32.3817 19.3998C32.3817 21.0155 31.1167 22.3253 29.5566 22.3253C27.9962 22.3253 26.7315 21.0155 26.7315 19.3998C26.7315 17.784 29.5566 14.8334 29.5566 14.8334C29.5566 14.8334 32.3817 17.784 32.3817 19.3998Z" fill="white" stroke="black" stroke-width="1.5" stroke-linecap="round" stroke-linejoin="round"/>
<path fill-rule="evenodd" clip-rule="evenodd" d="M42.0824 25.9753C42.0824 27.5915 40.8177 28.9013 39.2572 28.9013C37.6968 28.9013 36.4321 27.5915 36.4321 25.9753C36.4321 24.3596 39.2572 21.4094 39.2572 21.4094C39.2572 21.4094 42.0824 24.3596 42.0824 25.9753Z" fill="white" stroke="black" stroke-width="1.5" stroke-linecap="round" stroke-linejoin="round"/>
</g>
</svg>
