<svg width="68" height="68" viewBox="0 0 68 68" fill="none" xmlns="http://www.w3.org/2000/svg">
<rect opacity="0.9" width="68" height="68" rx="20" fill="#FFF2F6"/>
<mask id="mask0_3210_29834" style="mask-type:alpha" maskUnits="userSpaceOnUse" x="14" y="14" width="40" height="40">
<rect x="14" y="14" width="40" height="40" fill="#BDBDBD"/>
</mask>
<g mask="url(#mask0_3210_29834)">
<ellipse cx="33.9999" cy="31.3026" rx="18.3332" ry="4.45943" fill="white" stroke="black" stroke-width="1.5" stroke-linecap="round" stroke-linejoin="round"/>
<path fill-rule="evenodd" clip-rule="evenodd" d="M46.5935 26.0589C44.0639 28.5885 39.1203 27.6948 39.1203 27.6948C39.1203 27.6948 38.2266 22.7512 40.7562 20.2216C43.2858 17.692 48.2298 18.5853 48.2298 18.5853C48.2298 18.5853 49.1231 23.5293 46.5935 26.0589Z" fill="white" stroke="black" stroke-width="1.5" stroke-linecap="round" stroke-linejoin="round"/>
<path d="M45.4737 21.247L39.406 27.3147" stroke="black" stroke-width="1.5" stroke-linecap="round" stroke-linejoin="round"/>
<ellipse cx="33.9999" cy="29.8161" rx="10.4053" ry="13.8738" fill="white" stroke="black" stroke-width="1.5" stroke-linecap="round" stroke-linejoin="round"/>
<path fill-rule="evenodd" clip-rule="evenodd" d="M43.9098 32.789C43.9098 38.262 39.473 42.6989 34.0003 42.6989C28.5268 42.6989 24.0901 38.262 24.0901 32.789C24.0901 27.3161 28.5268 22.8792 34.0003 22.8792C39.473 22.8792 43.9098 27.3161 43.9098 32.789" fill="#FF4081"/>
<path fill-rule="evenodd" clip-rule="evenodd" d="M19.3605 34.4147C17.0418 36.3168 15.6667 38.685 15.6667 41.2521C15.6667 47.5242 23.8748 52.6087 34 52.6087C44.1252 52.6087 52.3334 47.5242 52.3334 41.2521C52.3334 38.685 50.9583 36.3167 48.6394 34.4147C45.293 35.668 39.9809 36.478 33.9999 36.478C28.019 36.478 22.707 35.668 19.3605 34.4147Z" fill="white"/>
<path d="M19.3605 34.4147L19.6236 33.7124C19.3731 33.6186 19.0917 33.6653 18.8849 33.8349L19.3605 34.4147ZM48.6394 34.4147L49.1151 33.8348C48.9083 33.6652 48.6268 33.6185 48.3764 33.7123L48.6394 34.4147ZM16.4167 41.2521C16.4167 38.9731 17.6352 36.8001 19.8362 34.9946L18.8849 33.8349C16.4483 35.8335 14.9167 38.3969 14.9167 41.2521H16.4167ZM34 51.8587C29.0543 51.8587 24.6125 50.6154 21.4313 48.6449C18.2388 46.6672 16.4167 44.033 16.4167 41.2521H14.9167C14.9167 44.7433 17.1987 47.7874 20.6414 49.92C24.0957 52.0597 28.8206 53.3587 34 53.3587V51.8587ZM51.5834 41.2521C51.5834 44.033 49.7613 46.6672 46.5687 48.6449C43.3876 50.6154 38.9458 51.8587 34 51.8587V53.3587C39.1795 53.3587 43.9044 52.0597 47.3586 49.92C50.8014 47.7874 53.0834 44.7433 53.0834 41.2521H51.5834ZM48.1638 34.9945C50.3649 36.8 51.5834 38.9731 51.5834 41.2521H53.0834C53.0834 38.3968 51.5517 35.8334 49.1151 33.8348L48.1638 34.9945ZM48.3764 33.7123C45.145 34.9225 39.9315 35.728 33.9999 35.728V37.228C40.0304 37.228 45.441 36.4134 48.9025 35.117L48.3764 33.7123ZM33.9999 35.728C28.0684 35.728 22.8549 34.9225 19.6236 33.7124L19.0975 35.1171C22.559 36.4135 27.9695 37.228 33.9999 37.228V35.728Z" fill="black"/>
<path d="M30.5315 28.8252L33.4924 31.7861" stroke="black" stroke-width="1.5" stroke-linecap="round" stroke-linejoin="round"/>
<path d="M37.4562 30.8071L34.4954 33.768" stroke="black" stroke-width="1.5" stroke-linecap="round" stroke-linejoin="round"/>
<path fill-rule="evenodd" clip-rule="evenodd" d="M27.3774 30.396C29.1661 33.4941 27.0234 38.038 27.0234 38.038C27.0234 38.038 22.017 37.6217 20.2283 34.5236C18.4396 31.4255 20.582 26.8812 20.582 26.8812C20.582 26.8812 25.5887 27.2979 27.3774 30.396Z" fill="white" stroke="black" stroke-width="1.5" stroke-linecap="round" stroke-linejoin="round"/>
<path d="M22.4397 30.2322L26.7302 37.6636" stroke="black" stroke-width="1.5" stroke-linecap="round" stroke-linejoin="round"/>
<path d="M33.9999 23.8702V36.4152" stroke="black" stroke-width="1.5" stroke-linecap="round" stroke-linejoin="round"/>
</g>
</svg>
