<svg width="68" height="68" viewBox="0 0 68 68" fill="none" xmlns="http://www.w3.org/2000/svg">
<rect opacity="0.9" width="68" height="68" rx="20" fill="#FFF2F6"/>
<mask id="mask0_3210_34803" style="mask-type:alpha" maskUnits="userSpaceOnUse" x="14" y="14" width="40" height="40">
<rect x="14" y="14" width="40" height="40" fill="#BDBDBD"/>
</mask>
<g mask="url(#mask0_3210_34803)">
<path fill-rule="evenodd" clip-rule="evenodd" d="M45.6667 27.3333C45.6667 33.7765 40.4434 39 34.0005 39C27.5567 39 22.3334 33.7765 22.3334 27.3333C22.3334 20.8902 27.5567 15.6667 34.0005 15.6667C40.4434 15.6667 45.6667 20.8902 45.6667 27.3333" fill="#FF4081"/>
<path fill-rule="evenodd" clip-rule="evenodd" d="M41.3064 24.1538C41.181 22.3402 40.5025 20.9865 39.3999 20.691C38.2974 20.3956 37.0329 21.2288 36.0175 22.7366C35.7621 22.5531 35.4697 22.4118 35.1479 22.3256C33.7185 21.9426 32.2494 22.7908 31.8664 24.2202C31.5928 25.2413 31.9475 26.2827 32.6935 26.9339L31.758 35.2866L38.7204 37.1522L42.0865 29.4507C43.0582 29.2597 43.8861 28.5352 44.1596 27.5141C44.5426 26.0848 43.6944 24.6156 42.2651 24.2326C41.9432 24.1464 41.6194 24.1226 41.3064 24.1538Z" fill="white"/>
<path d="M41.3064 24.1538L40.5975 24.2028C40.6108 24.3945 40.7011 24.5727 40.8479 24.6966C40.9948 24.8206 41.1856 24.8798 41.3768 24.8608L41.3064 24.1538ZM36.0175 22.7366L35.603 23.3137C35.7591 23.4258 35.954 23.4699 36.1431 23.436C36.3322 23.402 36.4996 23.2929 36.6069 23.1335L36.0175 22.7366ZM32.6935 26.9339L33.3996 27.013C33.4256 26.7814 33.3363 26.5519 33.1608 26.3986L32.6935 26.9339ZM31.758 35.2866L31.0518 35.2075C31.0127 35.5566 31.2347 35.882 31.5741 35.9729L31.758 35.2866ZM38.7204 37.1522L38.5365 37.8385C38.8759 37.9294 39.2307 37.7586 39.3714 37.4367L38.7204 37.1522ZM42.0865 29.4507L41.9495 28.7535C41.7208 28.7985 41.5288 28.9526 41.4355 29.1661L42.0865 29.4507ZM42.0152 24.1048C41.9478 23.1301 41.7297 22.2327 41.3456 21.5171C40.9602 20.7989 40.3787 20.2177 39.5838 20.0047L39.216 21.3774C39.5236 21.4598 39.8327 21.7032 40.0935 22.1891C40.3557 22.6776 40.5395 23.3639 40.5975 24.2028L42.0152 24.1048ZM39.5838 20.0047C38.7889 19.7917 37.9948 20.0043 37.3019 20.4336C36.6115 20.8613 35.9739 21.5294 35.4282 22.3398L36.6069 23.1335C37.0766 22.436 37.5789 21.9336 38.0502 21.6416C38.519 21.3512 38.9084 21.2949 39.216 21.3774L39.5838 20.0047ZM36.432 22.1595C36.108 21.9268 35.7377 21.748 35.3318 21.6393L34.964 23.0119C35.2017 23.0756 35.4161 23.1795 35.603 23.3137L36.432 22.1595ZM35.3318 21.6393C33.5234 21.1547 31.6646 22.2279 31.18 24.0363L32.5527 24.4041C32.8341 23.3538 33.9137 22.7305 34.964 23.0119L35.3318 21.6393ZM31.18 24.0363C30.8336 25.3292 31.2838 26.6465 32.2263 27.4692L33.1608 26.3986C32.6112 25.9188 32.3519 25.1534 32.5527 24.4041L31.18 24.0363ZM31.9874 26.8548L31.0518 35.2075L32.4641 35.3657L33.3996 27.013L31.9874 26.8548ZM31.5741 35.9729L38.5365 37.8385L38.9043 36.4658L31.9419 34.6003L31.5741 35.9729ZM39.3714 37.4367L42.7376 29.7353L41.4355 29.1661L38.0693 36.8676L39.3714 37.4367ZM43.4733 27.3303C43.2726 28.0795 42.6653 28.6128 41.9495 28.7535L42.2236 30.1479C43.451 29.9066 44.4996 28.9909 44.846 27.698L43.4733 27.3303ZM42.0812 24.9189C43.1315 25.2004 43.7548 26.28 43.4733 27.3303L44.846 27.698C45.3305 25.8897 44.2573 24.0309 42.449 23.5463L42.0812 24.9189ZM41.3768 24.8608C41.6058 24.838 41.8434 24.8552 42.0812 24.9189L42.449 23.5463C42.043 23.4375 41.633 23.4072 41.2359 23.4467L41.3768 24.8608Z" fill="black"/>
<path fill-rule="evenodd" clip-rule="evenodd" d="M22.9598 35.3378V42.7631C22.9598 48.0959 27.2829 52.4189 32.6156 52.4189H35.342C40.6747 52.4189 44.9978 48.0959 44.9978 42.7631V38.8125L40.8641 32.5848L38.5303 33.4681H29.7249C29.7249 33.4681 28.1219 32.8618 27.7504 32.7213C27.5098 32.6303 27.3895 32.5848 27.3895 32.5848L22.9598 35.3378Z" fill="white" stroke="black" stroke-width="1.42105" stroke-linecap="round" stroke-linejoin="round"/>
<path d="M33.9407 42.4688V45.2126" stroke="black" stroke-width="0.8" stroke-linecap="round" stroke-linejoin="round"/>
<path fill-rule="evenodd" clip-rule="evenodd" d="M29.4392 40.8017C29.4392 41.3537 28.9745 41.8012 28.4012 41.8012C27.8285 41.8012 27.3639 41.3537 27.3639 40.8017C27.3639 40.2496 27.8285 39.8022 28.4012 39.8022C28.9745 39.8022 29.4392 40.2496 29.4392 40.8017" fill="black"/>
<path fill-rule="evenodd" clip-rule="evenodd" d="M40.5158 40.8017C40.5158 41.3537 40.0512 41.8012 39.4779 41.8012C38.9052 41.8012 38.4406 41.3537 38.4406 40.8017C38.4406 40.2496 38.9052 39.8022 39.4779 39.8022C40.0512 39.8022 40.5158 40.2496 40.5158 40.8017" fill="black"/>
<ellipse cx="33.9406" cy="42.1354" rx="2.07686" ry="0.999972" fill="black"/>
<path fill-rule="evenodd" clip-rule="evenodd" d="M27.128 32.4691V36.4178C27.128 38.2587 25.5782 39.7511 23.6665 39.7511C21.7548 39.7511 20.2051 38.2587 20.2051 36.4178V32.4691H27.128Z" fill="white" stroke="black" stroke-width="1.42105" stroke-linecap="round" stroke-linejoin="round"/>
<path fill-rule="evenodd" clip-rule="evenodd" d="M40.8297 32.0984V36.0472C40.8297 37.8881 42.3794 39.3804 44.2911 39.3804C46.2028 39.3804 47.7526 37.8881 47.7526 36.0472V32.0984H40.8297Z" fill="white" stroke="black" stroke-width="1.42105" stroke-linecap="round" stroke-linejoin="round"/>
<path d="M35.9363 26.2816L35.5941 29.6572" stroke="black" stroke-width="1.5" stroke-linecap="round" stroke-linejoin="round"/>
<path d="M39.4174 27.2143L38.026 30.3088" stroke="black" stroke-width="1.5" stroke-linecap="round" stroke-linejoin="round"/>
<path d="M23.1049 52.8798C23.1049 51.0115 24.6195 49.4968 26.4879 49.4968V49.4968C28.3563 49.4968 29.8709 51.0115 29.8709 52.8798V53.3631H23.1049V52.8798Z" fill="white" stroke="black" stroke-width="1.42105" stroke-linecap="round" stroke-linejoin="round"/>
<path d="M38.5701 52.8798C38.5701 51.0115 40.0847 49.4968 41.9531 49.4968V49.4968C43.8215 49.4968 45.3361 51.0115 45.3361 52.8798V53.3631H38.5701V52.8798Z" fill="white" stroke="black" stroke-width="1.42105" stroke-linecap="round" stroke-linejoin="round"/>
</g>
</svg>
