<svg width="68" height="68" viewBox="0 0 68 68" fill="none" xmlns="http://www.w3.org/2000/svg">
<rect opacity="0.9" width="68" height="68" rx="20" fill="#FFF2F6"/>
<mask id="mask0_3210_34807" style="mask-type:alpha" maskUnits="userSpaceOnUse" x="14" y="14" width="40" height="40">
<rect x="14" y="14" width="40" height="40" fill="#BDBDBD"/>
</mask>
<g mask="url(#mask0_3210_34807)">
<path fill-rule="evenodd" clip-rule="evenodd" d="M45.6666 34C45.6666 40.4432 40.4434 45.6667 34.0005 45.6667C27.5566 45.6667 22.3333 40.4432 22.3333 34C22.3333 27.5569 27.5566 22.3333 34.0005 22.3333C40.4434 22.3333 45.6666 27.5569 45.6666 34" fill="#FF4081"/>
<path fill-rule="evenodd" clip-rule="evenodd" d="M45.3421 50.5459L17.2469 22.4507C16.8066 22.0104 16.8066 21.2895 17.2469 20.8504L21.0564 17.0397C21.4978 16.5994 22.2177 16.5994 22.6579 17.0397L50.7532 45.1349C51.1934 45.5752 51.1934 46.295 50.7532 46.7352L46.9425 50.5459C46.5022 50.9862 45.7824 50.9862 45.3421 50.5459" fill="white"/>
<path d="M45.3421 50.5459L17.2469 22.4507C16.8066 22.0104 16.8066 21.2895 17.2469 20.8504L21.0564 17.0397C21.4978 16.5994 22.2177 16.5994 22.6579 17.0397L50.7532 45.1349C51.1934 45.5752 51.1934 46.295 50.7532 46.7352L46.9425 50.5459C46.5022 50.9862 45.7824 50.9862 45.3421 50.5459" stroke="black" stroke-width="1.5" stroke-linecap="round" stroke-linejoin="round"/>
<path fill-rule="evenodd" clip-rule="evenodd" d="M16.9804 24.7657L18.7216 29.8264C18.9263 30.4209 19.5649 30.7348 20.1412 30.524L32.191 26.1311C32.7684 25.9203 33.0733 25.2628 32.8686 24.6695L31.1274 19.6075C30.9238 19.0142 30.2841 18.7003 29.7078 18.9099L17.658 23.304C17.0806 23.5137 16.7757 24.1712 16.9804 24.7657" fill="white"/>
<path d="M16.9804 24.7657L18.7216 29.8264C18.9263 30.4209 19.5649 30.7348 20.1412 30.524L32.191 26.1311C32.7684 25.9203 33.0733 25.2628 32.8686 24.6695L31.1274 19.6075C30.9238 19.0142 30.2841 18.7003 29.7078 18.9099L17.658 23.304C17.0806 23.5137 16.7757 24.1712 16.9804 24.7657" stroke="black" stroke-width="1.5" stroke-linecap="round" stroke-linejoin="round"/>
<path fill-rule="evenodd" clip-rule="evenodd" d="M24.9732 16.7732L30.0337 18.5133C30.6282 18.718 30.942 19.3566 30.7313 19.934L26.3386 31.9839C26.1278 32.5602 25.4703 32.8662 24.8758 32.6615L19.8153 30.9203C19.2208 30.7167 18.907 30.077 19.1178 29.5007L23.5105 17.4497C23.7212 16.8734 24.3787 16.5685 24.9732 16.7732" fill="white"/>
<path d="M24.9732 16.7732L30.0337 18.5133C30.6282 18.718 30.942 19.3566 30.7313 19.934L26.3386 31.9839C26.1278 32.5602 25.4703 32.8662 24.8758 32.6615L19.8153 30.9203C19.2208 30.7167 18.907 30.077 19.1178 29.5007L23.5105 17.4497C23.7212 16.8734 24.3787 16.5685 24.9732 16.7732" stroke="black" stroke-width="1.5" stroke-linecap="round" stroke-linejoin="round"/>
<path fill-rule="evenodd" clip-rule="evenodd" d="M35.1315 42.9167L36.8715 47.9775C37.0762 48.572 37.7159 48.8859 38.2922 48.6751L50.3421 44.2822C50.9195 44.0714 51.2243 43.4139 51.0196 42.8205L49.2785 37.7586C49.0749 37.1652 48.4352 36.8514 47.8589 37.061L35.809 41.4551C35.2316 41.6647 34.9268 42.3222 35.1315 42.9167" fill="white"/>
<path d="M35.1315 42.9167L36.8715 47.9775C37.0762 48.572 37.7159 48.8859 38.2922 48.6751L50.3421 44.2822C50.9195 44.0714 51.2243 43.4139 51.0196 42.8205L49.2785 37.7586C49.0749 37.1652 48.4352 36.8514 47.8589 37.061L35.809 41.4551C35.2316 41.6647 34.9268 42.3222 35.1315 42.9167" stroke="black" stroke-width="1.5" stroke-linecap="round" stroke-linejoin="round"/>
<path fill-rule="evenodd" clip-rule="evenodd" d="M43.3099 35.1097L48.3704 36.8508C48.9649 37.0555 49.2788 37.6941 49.068 38.2704L44.6753 50.3215C44.4645 50.8978 43.807 51.2026 43.2126 50.9979L38.1521 49.2579C37.5576 49.0532 37.2437 48.4146 37.4545 47.8372L41.8472 35.7872C42.058 35.2109 42.7155 34.9049 43.3099 35.1097" fill="white"/>
<path d="M43.3099 35.1097L48.3704 36.8508C48.9649 37.0555 49.2788 37.6941 49.068 38.2704L44.6753 50.3215C44.4645 50.8978 43.807 51.2026 43.2126 50.9979L38.1521 49.2579C37.5576 49.0532 37.2437 48.4146 37.4545 47.8372L41.8472 35.7872C42.058 35.2109 42.7155 34.9049 43.3099 35.1097" stroke="black" stroke-width="1.5" stroke-linecap="round" stroke-linejoin="round"/>
<path d="M43.9273 20.9987H50.4767" stroke="black" stroke-width="1.5" stroke-linecap="round" stroke-linejoin="round"/>
<path d="M45.6147 18.1494L48.7889 23.6475" stroke="black" stroke-width="1.5" stroke-linecap="round" stroke-linejoin="round"/>
<path d="M45.6147 23.6474L48.7889 18.1493" stroke="black" stroke-width="1.5" stroke-linecap="round" stroke-linejoin="round"/>
<path d="M18.094 46.832H24.6434" stroke="black" stroke-width="1.5" stroke-linecap="round" stroke-linejoin="round"/>
<path d="M19.7814 43.9827L22.9556 49.4808" stroke="black" stroke-width="1.5" stroke-linecap="round" stroke-linejoin="round"/>
<path d="M19.7814 49.4807L22.9556 43.9826" stroke="black" stroke-width="1.5" stroke-linecap="round" stroke-linejoin="round"/>
</g>
</svg>
