<svg width="68" height="68" viewBox="0 0 68 68" fill="none" xmlns="http://www.w3.org/2000/svg">
<rect opacity="0.9" width="68" height="68" rx="20" fill="#FFF2F6"/>
<mask id="mask0_3210_34808" style="mask-type:alpha" maskUnits="userSpaceOnUse" x="14" y="14" width="40" height="40">
<rect x="14" y="14" width="40" height="40" fill="#BDBDBD"/>
</mask>
<g mask="url(#mask0_3210_34808)">
<path fill-rule="evenodd" clip-rule="evenodd" d="M45.6666 34C45.6666 40.4432 40.4434 45.6667 34.0005 45.6667C27.5566 45.6667 22.3333 40.4432 22.3333 34C22.3333 27.5569 27.5566 22.3333 34.0005 22.3333C40.4434 22.3333 45.6666 27.5569 45.6666 34Z" fill="#FF4081"/>
<path d="M43.9274 20.9987H50.4768" stroke="black" stroke-width="1.5" stroke-linecap="round" stroke-linejoin="round"/>
<path d="M45.6149 18.1494L48.789 23.6475" stroke="black" stroke-width="1.5" stroke-linecap="round" stroke-linejoin="round"/>
<path d="M45.6149 23.6474L48.789 18.1493" stroke="black" stroke-width="1.5" stroke-linecap="round" stroke-linejoin="round"/>
<path d="M18.094 46.8321H24.6434" stroke="black" stroke-width="1.5" stroke-linecap="round" stroke-linejoin="round"/>
<path d="M19.7814 43.9828L22.9556 49.4809" stroke="black" stroke-width="1.5" stroke-linecap="round" stroke-linejoin="round"/>
<path d="M19.7814 49.4808L22.9556 43.9827" stroke="black" stroke-width="1.5" stroke-linecap="round" stroke-linejoin="round"/>
<path fill-rule="evenodd" clip-rule="evenodd" d="M20.6329 17.6797C22.06 16.2527 24.3737 16.2527 25.8008 17.6797C27.2279 19.1068 27.2279 21.4206 25.8008 22.8477L35.3985 32.4454L32.4454 35.3985L22.8478 25.8009C21.4207 27.2279 19.1069 27.2279 17.6798 25.8008C16.2527 24.3737 16.2527 22.06 17.6798 20.6329C18.2288 20.0839 18.909 19.7461 19.6195 19.6195C19.7461 18.909 20.0839 18.2288 20.6329 17.6797Z" fill="white"/>
<path d="M25.8008 22.8477L25.2705 22.3174C24.9776 22.6103 24.9776 23.0851 25.2705 23.378L25.8008 22.8477ZM35.3985 32.4454L35.9288 32.9757C36.2217 32.6828 36.2217 32.2079 35.9288 31.915L35.3985 32.4454ZM32.4454 35.3985L31.915 35.9288C32.2079 36.2217 32.6828 36.2217 32.9757 35.9288L32.4454 35.3985ZM22.8478 25.8009L23.3781 25.2705C23.0852 24.9776 22.6103 24.9776 22.3174 25.2705L22.8478 25.8009ZM19.6195 19.6195L19.7511 20.3578C20.0605 20.3027 20.3027 20.0605 20.3578 19.751L19.6195 19.6195ZM26.3312 17.1494C24.6112 15.4294 21.8225 15.4294 20.1025 17.1494L21.1632 18.2101C22.2974 17.0759 24.1363 17.0759 25.2705 18.2101L26.3312 17.1494ZM26.3312 23.378C28.0512 21.658 28.0512 18.8694 26.3312 17.1494L25.2705 18.2101C26.4047 19.3443 26.4047 21.1832 25.2705 22.3174L26.3312 23.378ZM25.2705 23.378L34.8682 32.9757L35.9288 31.915L26.3312 22.3174L25.2705 23.378ZM34.8682 31.915L31.915 34.8681L32.9757 35.9288L35.9288 32.9757L34.8682 31.915ZM32.9757 34.8681L23.3781 25.2705L22.3174 26.3312L31.915 35.9288L32.9757 34.8681ZM22.3174 25.2705C21.1832 26.4047 19.3444 26.4047 18.2102 25.2705L17.1495 26.3312C18.8695 28.0511 21.6581 28.0512 23.3781 26.3312L22.3174 25.2705ZM18.2102 25.2705C17.076 24.1363 17.076 22.2974 18.2102 21.1632L17.1495 20.1025C15.4295 21.8225 15.4295 24.6112 17.1495 26.3312L18.2102 25.2705ZM18.2102 21.1632C18.6472 20.7262 19.1868 20.4584 19.7511 20.3578L19.4879 18.8811C18.6313 19.0338 17.8104 19.4416 17.1495 20.1025L18.2102 21.1632ZM20.1025 17.1494C19.4416 17.8104 19.0337 18.6312 18.8811 19.4879L20.3578 19.751C20.4584 19.1867 20.7262 18.6471 21.1632 18.2101L20.1025 17.1494Z" fill="black"/>
<path fill-rule="evenodd" clip-rule="evenodd" d="M47.2109 50.1641C45.7838 51.5912 43.47 51.5912 42.0429 50.1641C40.6158 48.737 40.6158 46.4232 42.0429 44.9962L32.4452 35.3985L35.3984 32.4454L44.996 42.043L44.996 42.043C46.4231 40.6159 48.7369 40.6159 50.164 42.043C51.5911 43.4701 51.5911 45.7839 50.164 47.211C49.615 47.76 48.9348 48.0978 48.2243 48.2244C48.0977 48.9349 47.7599 49.6151 47.2109 50.1641Z" fill="white"/>
<path d="M42.0429 44.9962L42.5732 45.5265C42.8661 45.2336 42.8661 44.7587 42.5732 44.4658L42.0429 44.9962ZM32.4452 35.3985L31.9149 34.8682C31.622 35.1611 31.622 35.6359 31.9149 35.9288L32.4452 35.3985ZM35.3984 32.4454L35.9287 31.9151C35.788 31.7744 35.5973 31.6954 35.3984 31.6954C35.1994 31.6954 35.0087 31.7744 34.868 31.9151L35.3984 32.4454ZM44.996 42.043L44.4657 42.5734C44.6063 42.714 44.7971 42.793 44.996 42.793C45.1949 42.793 45.3857 42.714 45.5264 42.5734L44.996 42.043ZM44.996 42.043L44.4657 41.5127L44.996 42.043ZM48.2243 48.2244L48.0927 47.486C47.7833 47.5412 47.541 47.7834 47.4859 48.0928L48.2243 48.2244ZM41.5126 50.6944C43.2326 52.4144 46.0212 52.4144 47.7412 50.6944L46.6805 49.6338C45.5463 50.768 43.7074 50.768 42.5732 49.6338L41.5126 50.6944ZM41.5126 44.4658C39.7926 46.1858 39.7926 48.9745 41.5126 50.6944L42.5732 49.6338C41.439 48.4996 41.439 46.6607 42.5732 45.5265L41.5126 44.4658ZM42.5732 44.4658L32.9756 34.8682L31.9149 35.9288L41.5126 45.5265L42.5732 44.4658ZM32.9756 35.9288L35.9287 32.9757L34.868 31.9151L31.9149 34.8682L32.9756 35.9288ZM34.868 32.9757L44.4657 42.5734L45.5264 41.5127L35.9287 31.9151L34.868 32.9757ZM45.5264 42.5734L45.5264 42.5734L44.4657 41.5127L44.4657 41.5127L45.5264 42.5734ZM45.5264 42.5734C46.6606 41.4392 48.4995 41.4392 49.6337 42.5734L50.6943 41.5127C48.9744 39.7927 46.1857 39.7927 44.4657 41.5127L45.5264 42.5734ZM49.6337 42.5734C50.7679 43.7076 50.7679 45.5465 49.6337 46.6807L50.6943 47.7413C52.4143 46.0213 52.4143 43.2327 50.6943 41.5127L49.6337 42.5734ZM49.6337 46.6807C49.1966 47.1177 48.657 47.3855 48.0927 47.486L48.3558 48.9628C49.2125 48.8101 50.0334 48.4023 50.6943 47.7413L49.6337 46.6807ZM47.7412 50.6944C48.4022 50.0335 48.81 49.2126 48.9626 48.356L47.4859 48.0928C47.3853 48.6571 47.1176 49.1968 46.6805 49.6338L47.7412 50.6944Z" fill="black"/>
<path fill-rule="evenodd" clip-rule="evenodd" d="M27.1631 36.3839C25.2303 35.0023 24.6869 32.0826 26.3669 30.4026L30.3493 26.4202C32.0433 24.7261 35.0104 25.2895 36.4181 27.228C36.9464 27.9555 37.5558 28.6967 38.2437 29.3845C39.0309 30.1717 39.9047 30.8729 40.7554 31.4749C42.6786 32.8357 43.195 35.7229 41.5291 37.3888L37.3441 41.5738C35.6903 43.2276 32.8409 42.7292 31.5011 40.8122C30.8861 39.9323 30.1729 39.0325 29.3843 38.2439C28.6887 37.5482 27.9207 36.9255 27.1631 36.3839Z" fill="white" stroke="black" stroke-width="1.5" stroke-linecap="round" stroke-linejoin="round"/>
</g>
</svg>
