<svg width="68" height="68" viewBox="0 0 68 68" fill="none" xmlns="http://www.w3.org/2000/svg">
<rect opacity="0.9" width="68" height="68" rx="20" fill="#FFF2F6"/>
<mask id="mask0_3210_34806" style="mask-type:alpha" maskUnits="userSpaceOnUse" x="14" y="14" width="40" height="40">
<rect x="14" y="14" width="40" height="40" fill="#BDBDBD"/>
</mask>
<g mask="url(#mask0_3210_34806)">
<path fill-rule="evenodd" clip-rule="evenodd" d="M45.6666 34C45.6666 40.4432 40.4434 45.6667 34.0005 45.6667C27.5566 45.6667 22.3333 40.4432 22.3333 34C22.3333 27.5569 27.5566 22.3333 34.0005 22.3333C40.4434 22.3333 45.6666 27.5569 45.6666 34" fill="#FF4081"/>
<path fill-rule="evenodd" clip-rule="evenodd" d="M21.8754 21.8755C22.0806 20.9378 22.5502 20.0425 23.2832 19.3094C25.2951 17.2976 28.5292 17.2698 30.5068 19.2475C32.1459 20.8865 32.4074 23.3887 31.3036 25.3427L43.188 37.2272C45.1421 36.1233 47.6443 36.3848 49.2834 38.0239C51.261 40.0015 51.2333 43.2357 49.2214 45.2475C48.4884 45.9806 47.593 46.4502 46.6553 46.6554C46.4501 47.5931 45.9805 48.4884 45.2474 49.2214C43.2356 51.2333 40.0015 51.261 38.0239 49.2834C36.3848 47.6443 36.1232 45.1421 37.2271 43.1881L25.3427 31.3037C23.3886 32.4075 20.8865 32.146 19.2474 30.5069C17.2698 28.5293 17.2975 25.2952 19.3093 23.2833C20.0424 22.5503 20.9377 22.0807 21.8754 21.8755Z" fill="white"/>
<path d="M21.8754 21.8755L22.0357 22.6081C22.3219 22.5455 22.5454 22.322 22.608 22.0358L21.8754 21.8755ZM31.3036 25.3427L30.6506 24.9739C30.4849 25.2671 30.5351 25.6349 30.7732 25.8731L31.3036 25.3427ZM43.188 37.2272L42.6577 37.7575C42.8959 37.9957 43.2636 38.0459 43.5569 37.8802L43.188 37.2272ZM46.6553 46.6554L46.495 45.9227C46.2088 45.9853 45.9853 46.2089 45.9226 46.4951L46.6553 46.6554ZM37.2271 43.1881L37.8801 43.557C38.0458 43.2637 37.9956 42.8959 37.7574 42.6578L37.2271 43.1881ZM25.3427 31.3037L25.873 30.7733C25.6348 30.5351 25.2671 30.485 24.9738 30.6507L25.3427 31.3037ZM22.7529 18.7791C21.9159 19.6161 21.3778 20.6408 21.1427 21.7151L22.608 22.0358C22.7833 21.2348 23.1845 20.4688 23.8136 19.8397L22.7529 18.7791ZM31.0372 18.7171C28.7581 16.4381 25.049 16.483 22.7529 18.7791L23.8136 19.8397C25.5411 18.1122 28.3003 18.1016 29.9765 19.7778L31.0372 18.7171ZM31.9566 25.7116C33.218 23.4788 32.9259 20.6059 31.0372 18.7171L29.9765 19.7778C31.3658 21.1671 31.5969 23.2986 30.6506 24.9739L31.9566 25.7116ZM43.7183 36.6969L31.8339 24.8124L30.7732 25.8731L42.6577 37.7575L43.7183 36.6969ZM49.8137 37.4936C47.9249 35.6048 45.052 35.3128 42.8191 36.5742L43.5569 37.8802C45.2322 36.9338 47.3637 37.1649 48.7531 38.5542L49.8137 37.4936ZM49.7518 45.7778C52.0479 43.4817 52.0928 39.7726 49.8137 37.4936L48.7531 38.5542C50.4293 40.2304 50.4187 42.9896 48.6911 44.7172L49.7518 45.7778ZM46.8156 47.388C47.89 47.153 48.9147 46.6148 49.7518 45.7778L48.6911 44.7172C48.062 45.3463 47.296 45.7474 46.495 45.9227L46.8156 47.388ZM45.7778 49.7517C46.6148 48.9148 47.1529 47.89 47.388 46.8157L45.9226 46.4951C45.7474 47.2961 45.3462 48.062 44.7171 48.6911L45.7778 49.7517ZM37.4935 49.8137C39.7726 52.0928 43.4816 52.0479 45.7778 49.7517L44.7171 48.6911C42.9895 50.4186 40.2304 50.4292 38.5542 48.753L37.4935 49.8137ZM36.5741 42.8192C35.3127 45.0521 35.6047 47.9249 37.4935 49.8137L38.5542 48.753C37.1648 47.3637 36.9338 45.2322 37.8801 43.557L36.5741 42.8192ZM24.8124 31.834L36.6968 43.7184L37.7574 42.6578L25.873 30.7733L24.8124 31.834ZM24.9738 30.6507C23.2986 31.597 21.1671 31.3659 19.7777 29.9766L18.7171 31.0372C20.6059 32.926 23.4787 33.218 25.7116 31.9567L24.9738 30.6507ZM19.7777 29.9766C18.1015 28.3004 18.1121 25.5412 19.8397 23.8137L18.779 22.753C16.4829 25.0491 16.438 28.7582 18.7171 31.0372L19.7777 29.9766ZM19.8397 23.8137C20.4688 23.1846 21.2347 22.7834 22.0357 22.6081L21.715 21.1428C20.6407 21.3779 19.616 21.916 18.779 22.753L19.8397 23.8137Z" fill="black"/>
<path d="M43.9273 20.9987H50.4767" stroke="black" stroke-width="1.5" stroke-linecap="round" stroke-linejoin="round"/>
<path d="M45.6147 18.1494L48.7889 23.6475" stroke="black" stroke-width="1.5" stroke-linecap="round" stroke-linejoin="round"/>
<path d="M45.6147 23.6474L48.7889 18.1493" stroke="black" stroke-width="1.5" stroke-linecap="round" stroke-linejoin="round"/>
<path d="M18.094 46.832H24.6434" stroke="black" stroke-width="1.5" stroke-linecap="round" stroke-linejoin="round"/>
<path d="M19.7814 43.9827L22.9556 49.4808" stroke="black" stroke-width="1.5" stroke-linecap="round" stroke-linejoin="round"/>
<path d="M19.7814 49.4807L22.9556 43.9826" stroke="black" stroke-width="1.5" stroke-linecap="round" stroke-linejoin="round"/>
</g>
</svg>
