<svg width="68" height="68" viewBox="0 0 68 68" fill="none" xmlns="http://www.w3.org/2000/svg">
<rect width="68" height="68" rx="20" fill="#FFF3F7"/>
<mask id="mask0_3210_35771" style="mask-type:alpha" maskUnits="userSpaceOnUse" x="14" y="14" width="40" height="40">
<rect x="14" y="14" width="40" height="40" fill="#BDBDBD"/>
</mask>
<g mask="url(#mask0_3210_35771)">
<path fill-rule="evenodd" clip-rule="evenodd" d="M44.3247 24.062C46.1312 29.7638 42.9729 35.8511 37.2715 37.6581C31.5691 39.4645 25.4818 36.3063 23.6753 30.6044C21.8689 24.9021 25.0266 18.8153 30.7285 17.0089C36.4309 15.2019 42.5177 18.3601 44.3247 24.062" fill="#FF4081"/>
<path fill-rule="evenodd" clip-rule="evenodd" d="M26.7758 32.2615H37.7342V32.2615H41.2243C42.9316 32.2615 44.5801 32.8855 45.8595 34.016L50.8019 38.3834C52.3056 39.7121 53.1667 41.6223 53.1667 43.6289V43.8439C53.1667 47.7099 50.0327 50.8439 46.1667 50.8439H35.4744V50.8439H21.8334C17.9674 50.8439 14.8334 47.7099 14.8334 43.8439V43.6289C14.8334 41.6223 15.6945 39.7121 17.1982 38.3834L22.1406 34.016C23.42 32.8855 25.0685 32.2615 26.7758 32.2615Z" fill="white"/>
<path d="M37.7342 32.2615H38.4842C38.4842 31.8473 38.1484 31.5115 37.7342 31.5115V32.2615ZM37.7342 32.2615H36.9842C36.9842 32.6757 37.32 33.0115 37.7342 33.0115V32.2615ZM45.8595 34.016L46.3561 33.454L46.3561 33.454L45.8595 34.016ZM50.8019 38.3834L50.3053 38.9454L50.3053 38.9454L50.8019 38.3834ZM35.4744 50.8439H34.7244C34.7244 51.2581 35.0602 51.5939 35.4744 51.5939V50.8439ZM35.4744 50.8439H36.2244C36.2244 50.4297 35.8886 50.0939 35.4744 50.0939V50.8439ZM17.1982 38.3834L16.7016 37.8214L16.7016 37.8214L17.1982 38.3834ZM22.1406 34.016L22.6373 34.578L22.6373 34.578L22.1406 34.016ZM37.7342 31.5115H26.7758V33.0115H37.7342V31.5115ZM38.4842 32.2615V32.2615H36.9842V32.2615H38.4842ZM37.7342 33.0115H41.2243V31.5115H37.7342V33.0115ZM41.2243 33.0115C42.7487 33.0115 44.2205 33.5686 45.3628 34.578L46.3561 33.454C44.9396 32.2023 43.1145 31.5115 41.2243 31.5115V33.0115ZM45.3628 34.578L50.3053 38.9454L51.2985 37.8214L46.3561 33.454L45.3628 34.578ZM50.3053 38.9454C51.6478 40.1318 52.4167 41.8373 52.4167 43.6289H53.9167C53.9167 41.4073 52.9633 39.2925 51.2985 37.8214L50.3053 38.9454ZM52.4167 43.6289V43.8439H53.9167V43.6289H52.4167ZM52.4167 43.8439C52.4167 47.2957 49.6185 50.0939 46.1667 50.0939V51.5939C50.4469 51.5939 53.9167 48.1241 53.9167 43.8439H52.4167ZM46.1667 50.0939H35.4744V51.5939H46.1667V50.0939ZM36.2244 50.8439V50.8439H34.7244V50.8439H36.2244ZM21.8334 51.5939H35.4744V50.0939H21.8334V51.5939ZM14.0834 43.8439C14.0834 48.1241 17.5532 51.5939 21.8334 51.5939V50.0939C18.3816 50.0939 15.5834 47.2957 15.5834 43.8439H14.0834ZM14.0834 43.6289V43.8439H15.5834V43.6289H14.0834ZM16.7016 37.8214C15.0368 39.2925 14.0834 41.4073 14.0834 43.6289H15.5834C15.5834 41.8372 16.3523 40.1318 17.6948 38.9454L16.7016 37.8214ZM21.644 33.454L16.7016 37.8214L17.6948 38.9454L22.6373 34.578L21.644 33.454ZM26.7758 31.5115C24.8856 31.5115 23.0605 32.2023 21.644 33.454L22.6373 34.578C23.7796 33.5686 25.2514 33.0115 26.7758 33.0115V31.5115Z" fill="black"/>
<path d="M21.7137 38.1249C21.7137 38.1249 23.0412 38.3021 23.6787 39.8242" stroke="black" stroke-width="1.5" stroke-linecap="round" stroke-linejoin="round"/>
<path d="M46.2854 38.1249C46.2854 38.1249 44.9579 38.3021 44.3204 39.8242" stroke="black" stroke-width="1.5" stroke-linecap="round" stroke-linejoin="round"/>
<path d="M20.7307 41.664C20.7307 41.664 21.7289 40.0856 23.5451 40.0856C25.3613 40.0856 34.8218 40.0856 34.8218 40.0856" stroke="black" stroke-width="1.5" stroke-linecap="round" stroke-linejoin="round"/>
<path d="M47.2654 41.664C47.2654 41.664 46.2672 40.0856 44.451 40.0856C42.6348 40.0856 41.9321 40.0856 41.9321 40.0856" stroke="black" stroke-width="1.5" stroke-linecap="round" stroke-linejoin="round"/>
<path fill-rule="evenodd" clip-rule="evenodd" d="M27.7096 32.3933V37.2469C27.7096 39.0142 29.1423 40.4469 30.9096 40.4469H37.0908C38.8581 40.4469 40.2908 39.0142 40.2908 37.2469V34.5726L37.9309 30.6667L36.5985 31.2207H31.5717C31.5717 31.2207 30.6565 30.8404 30.4445 30.7523C30.3071 30.6952 30.2384 30.6667 30.2384 30.6667L27.7096 32.3933Z" fill="white" stroke="black" stroke-width="1.5" stroke-linecap="round" stroke-linejoin="round"/>
<ellipse cx="34.0003" cy="37.3173" rx="1.17949" ry="0.586813" fill="black"/>
<path fill-rule="evenodd" clip-rule="evenodd" d="M30.8548 30.6667V32.9839C30.8548 34.0642 29.9747 34.94 28.889 34.94C27.8033 34.94 26.9232 34.0642 26.9232 32.9839V30.6667H30.8548Z" fill="white" stroke="black" stroke-width="1.5" stroke-linecap="round" stroke-linejoin="round"/>
<path fill-rule="evenodd" clip-rule="evenodd" d="M37.1455 30.6667V32.9839C37.1455 34.0642 38.0256 34.94 39.1113 34.94C40.197 34.94 41.0771 34.0642 41.0771 32.9839V30.6667H37.1455Z" fill="white" stroke="black" stroke-width="1.5" stroke-linecap="round" stroke-linejoin="round"/>
<path d="M34.0002 37.5128V39.1229" stroke="black" stroke-width="0.8" stroke-linecap="round" stroke-linejoin="round"/>
<path d="M36.8505 36.6626H37.8334" stroke="black" stroke-width="0.8" stroke-linecap="round" stroke-linejoin="round"/>
<path d="M29.9702 36.6626H30.9531" stroke="black" stroke-width="0.8" stroke-linecap="round" stroke-linejoin="round"/>
<path d="M24.6625 39.0874C24.6625 38.0018 25.5426 37.1216 26.6283 37.1216V37.1216C27.714 37.1216 28.5941 38.0018 28.5941 39.0874V40.0557H24.6625V39.0874Z" fill="white" stroke="black" stroke-width="1.5" stroke-linecap="round" stroke-linejoin="round"/>
<path d="M39.406 39.0874C39.406 38.0018 40.2861 37.1216 41.3718 37.1216V37.1216C42.4575 37.1216 43.3376 38.0018 43.3376 39.0874V40.0557H39.406V39.0874Z" fill="white" stroke="black" stroke-width="1.5" stroke-linecap="round" stroke-linejoin="round"/>
</g>
</svg>
