<svg width="68" height="68" viewBox="0 0 68 68" fill="none" xmlns="http://www.w3.org/2000/svg">
<rect width="68" height="68" rx="20" fill="#FFF3F7"/>
<mask id="mask0_3210_35867" style="mask-type:alpha" maskUnits="userSpaceOnUse" x="14" y="14" width="40" height="40">
<rect x="14" y="14" width="40" height="40" fill="#BDBDBD"/>
</mask>
<g mask="url(#mask0_3210_35867)">
<path fill-rule="evenodd" clip-rule="evenodd" d="M38.4523 32.1436C40.3977 38.2841 36.9965 44.8396 30.8566 46.7856C24.7155 48.731 18.1599 45.3298 16.2145 39.1894C14.2691 33.0484 17.6697 26.4934 23.8102 24.548C29.9512 22.602 36.5063 26.0032 38.4523 32.1436" fill="#FF4081"/>
<path fill-rule="evenodd" clip-rule="evenodd" d="M43.2459 32.0413C43.2459 32.0413 44.7543 32.0413 46.2893 32.0413C50.9776 32.0413 51.5001 25.3527 51.5001 25.3527L48.2348 24.3439C48.2348 24.3439 47.1937 20.9482 45.833 20.2055C44.4723 19.4628 38.8797 18.7546 38.8797 18.7546C38.8797 18.7546 34.6123 20.8574 34.6123 26.3684C34.6123 31.8793 37.1284 31.8793 37.1284 31.8793L43.2459 32.0413Z" fill="white" stroke="black" stroke-width="1.5" stroke-linecap="round" stroke-linejoin="round"/>
<path fill-rule="evenodd" clip-rule="evenodd" d="M41.3674 18.7546V22.4176C41.3674 24.1253 39.8552 25.5097 37.9899 25.5097C36.1245 25.5097 34.6123 24.1253 34.6123 22.4176V18.7546H41.3674Z" fill="white" stroke="black" stroke-width="1.5" stroke-linecap="round" stroke-linejoin="round"/>
<path fill-rule="evenodd" clip-rule="evenodd" d="M46.1515 36.6576C46.1473 39.7001 46.1557 47.1665 46.1557 47.1665C46.1557 47.1665 48.4539 47.3353 48.4539 49.4647C45.5609 49.4308 37.716 49.4647 37.716 49.4647L34.8018 32.1296C34.8018 32.1296 41.5244 31.2514 44.4817 32.0412C45.5921 33.1246 46.1557 33.615 46.1515 36.6576Z" fill="white" stroke="black" stroke-width="1.5" stroke-linecap="round" stroke-linejoin="round"/>
<path fill-rule="evenodd" clip-rule="evenodd" d="M25.5695 41.8593C24.8698 46.9041 27.0783 52.1446 33.1451 52.1446C39.212 52.1446 39.8183 52.1446 39.8183 52.1446V40.3034L30.4047 37.1514C30.4047 37.1514 26.2692 36.8145 25.5695 41.8593Z" fill="white" stroke="black" stroke-width="1.5" stroke-linecap="round" stroke-linejoin="round"/>
<path fill-rule="evenodd" clip-rule="evenodd" d="M39.6438 45.1161L41.6279 37.1303C41.6279 37.1303 40.3535 35.4754 41.3274 33.5031C42.2459 31.6428 44.9904 32.2647 44.9904 32.2647C44.9904 32.2647 43.2905 30.7534 37.1285 30.7534C32.0877 30.7534 26.8672 33.9181 25.5696 41.8593C32.1143 39.4749 39.6438 45.1161 39.6438 45.1161Z" fill="#FF4081" stroke="black" stroke-width="1.5" stroke-linecap="round" stroke-linejoin="round"/>
<path fill-rule="evenodd" clip-rule="evenodd" d="M36.5319 52.1446C43.3192 52.1446 45.5829 52.1446 46.0522 52.1446C46.1074 52.1446 46.1511 52.1007 46.1482 52.0456C46.1238 51.5773 45.9186 49.6076 44.1919 49.6076C44.2027 47.1665 44.4976 42.5197 40.2419 42.5197C35.9862 42.5197 36.5162 49.03 36.5319 52.1446Z" fill="white" stroke="black" stroke-width="1.5" stroke-linecap="round" stroke-linejoin="round"/>
<path fill-rule="evenodd" clip-rule="evenodd" d="M27.848 47.8497C27.848 47.8497 21.9571 46.3545 21.3866 40.0182C20.8835 36.0915 15.8756 37.7303 19.2255 43.8425C16.7389 44.3732 16.3693 47.1103 21.4048 48.106C18.6454 49.5391 21.8451 52.7214 28.5815 50.587" fill="white"/>
<path d="M27.848 47.8497C27.848 47.8497 21.9571 46.3545 21.3866 40.0182C20.8835 36.0915 15.8756 37.7303 19.2255 43.8425C16.7389 44.3732 16.3693 47.1103 21.4048 48.106C18.6454 49.5391 21.8451 52.7214 28.5815 50.587" stroke="black" stroke-width="1.5" stroke-linecap="round" stroke-linejoin="round"/>
<path d="M24.7211 36.8619C14.7195 32.5168 15.0315 37.5095 15.0315 37.5095" stroke="black" stroke-width="1.5" stroke-linecap="round" stroke-linejoin="round"/>
</g>
</svg>
