<svg width="68" height="68" viewBox="0 0 68 68" fill="none" xmlns="http://www.w3.org/2000/svg">
<rect opacity="0.9" width="68" height="68" rx="20" fill="#FFF2F6"/>
<mask id="mask0_3210_35690" style="mask-type:alpha" maskUnits="userSpaceOnUse" x="14" y="14" width="40" height="40">
<rect x="14" y="14" width="40" height="40" fill="#BDBDBD"/>
</mask>
<g mask="url(#mask0_3210_35690)">
<path fill-rule="evenodd" clip-rule="evenodd" d="M45.1189 30.477C47.0643 36.6174 43.6631 43.173 37.5232 45.1189C31.3821 47.0643 24.8265 43.6632 22.8811 37.5227C20.9357 31.3817 24.3363 24.8267 30.4768 22.8813C36.6179 20.9354 43.1729 24.3365 45.1189 30.477" fill="#FF4081"/>
<path d="M35.1519 30.7512C35.1519 30.7512 40.4223 15.4536 49.3507 17.5966C58.2791 19.7397 37.1605 24.0837 36.4268 31.3869" stroke="black" stroke-width="1.5" stroke-linecap="round" stroke-linejoin="round"/>
<path fill-rule="evenodd" clip-rule="evenodd" d="M33.2303 28.3959L33.3555 28.4067C35.9293 28.7605 37.3608 30.4207 37.3608 33.0384C37.3608 33.7161 36.8114 34.2655 36.1337 34.2655C35.456 34.2655 34.9066 33.7161 34.9066 33.0384C34.9066 31.6412 34.3745 31.0241 33.0213 30.838C32.3499 30.7458 31.8804 30.1267 31.9727 29.4553C32.0592 28.8258 32.6088 28.3739 33.2303 28.3959Z" fill="white" stroke="black" stroke-width="1.5" stroke-linecap="round" stroke-linejoin="round"/>
<path fill-rule="evenodd" clip-rule="evenodd" d="M29.78 31.4065C30.2031 30.5271 31.259 30.1572 32.1384 30.5803C35.8842 32.3825 37.274 36.0189 36.3493 40.9738C36.1702 41.9331 35.2474 42.5657 34.2881 42.3866C33.3287 42.2076 32.6962 41.2847 32.8752 40.3254C33.5302 36.8161 32.7601 34.8012 30.6063 33.765C29.7268 33.3418 29.3569 32.286 29.78 31.4065Z" fill="white" stroke="black" stroke-width="1.5" stroke-linecap="round" stroke-linejoin="round"/>
<path fill-rule="evenodd" clip-rule="evenodd" d="M28.6676 44.1804C29.4378 43.5811 30.548 43.7196 31.1473 44.4897C31.7467 45.2599 31.6082 46.3701 30.838 46.9695C28.0026 49.176 26.0092 49.8975 22.5889 48.6217C20.5576 47.8641 18.7522 46.5447 19.0703 45.622C19.3883 44.6994 21.4021 44.7956 22.3247 45.1137C24.7489 45.9494 26.7909 45.6408 28.6676 44.1804Z" fill="white" stroke="black" stroke-width="1.5" stroke-linecap="round" stroke-linejoin="round"/>
<path fill-rule="evenodd" clip-rule="evenodd" d="M31.3014 42.4433C32.2163 42.1039 33.2332 42.5705 33.5726 43.4855C33.912 44.4005 33.4454 45.4174 32.5305 45.7568C27.7742 47.5211 23.6884 47.7053 19.9813 46.3729C18.2671 45.7568 17.3335 43.9335 17.6032 42.9957C17.873 42.0578 19.1429 42.9516 20.0808 43.2214C23.4977 44.2041 27.2225 43.9564 31.3014 42.4433Z" fill="white" stroke="black" stroke-width="1.5" stroke-linecap="round" stroke-linejoin="round"/>
<path fill-rule="evenodd" clip-rule="evenodd" d="M29.9761 39.3511C30.8911 39.0117 31.908 39.4782 32.2474 40.3932C32.5868 41.3082 32.4349 42.7548 31.52 43.0942C26.7637 44.8585 21.97 44.8414 18.7556 43.8078C16.9558 43.2291 16.3441 41.116 16.6138 40.1782C16.8836 39.2403 17.8177 39.8593 18.7556 40.1291C22.1725 41.1118 25.8972 40.8641 29.9761 39.3511Z" fill="white" stroke="black" stroke-width="1.5" stroke-linecap="round" stroke-linejoin="round"/>
<path fill-rule="evenodd" clip-rule="evenodd" d="M29.721 32.7395C30.3838 32.0232 31.5018 31.9799 32.218 32.6427C35.3619 35.552 37.2628 39.6825 36.0647 43.2395C35.4884 44.9502 34.501 46.5276 33.5277 46.456C32.5545 46.3844 32.7784 45.2821 32.85 44.3088C33.1418 40.3417 32.125 37.3717 29.8177 35.2366C29.1015 34.5738 29.0581 33.4558 29.721 32.7395Z" fill="white" stroke="black" stroke-width="1.5" stroke-linecap="round" stroke-linejoin="round"/>
<path fill-rule="evenodd" clip-rule="evenodd" d="M27.6006 34.4759C28.2798 33.7752 29.3836 33.8272 30.0992 34.4371C33.5276 37.3589 34.9426 42.2871 33.5276 46.456C33.0154 47.9653 31.5342 48.7838 30.5768 48.5949C29.6193 48.406 29.9933 47.8078 30.1821 46.8504C31.0134 42.6362 30.1599 39.4179 27.6394 36.9745C26.9387 36.2953 26.9213 35.1766 27.6006 34.4759Z" fill="white" stroke="black" stroke-width="1.5" stroke-linecap="round" stroke-linejoin="round"/>
<path fill-rule="evenodd" clip-rule="evenodd" d="M25.4951 36.1455C26.2287 35.5019 27.3451 35.5747 27.9888 36.3083C31.164 39.9268 32.2626 43.2874 30.3361 47.855C29.7474 49.2507 27.7807 49.7804 26.8815 49.4011C25.9823 49.0219 27.2139 48.1772 27.5441 47.1923C28.8694 43.2395 27.6024 41.2261 25.3324 38.6392C24.6888 37.9056 24.7616 36.7892 25.4951 36.1455Z" fill="white" stroke="black" stroke-width="1.5" stroke-linecap="round" stroke-linejoin="round"/>
<path fill-rule="evenodd" clip-rule="evenodd" d="M16.5157 37.9635C17.4304 31.1103 21.641 27.8777 28.4701 28.7929C29.4373 28.9225 30.1164 29.8117 29.9867 30.779C29.8571 31.7462 28.9679 32.4253 28.0006 32.2956C23.1104 31.6402 20.6756 33.5096 20.0187 38.4311C19.8896 39.3984 19.0008 40.0779 18.0335 39.9488C17.0661 39.8197 16.3866 38.9309 16.5157 37.9635Z" fill="white" stroke="black" stroke-width="1.5" stroke-linecap="round" stroke-linejoin="round"/>
<path fill-rule="evenodd" clip-rule="evenodd" d="M18.4294 38.3398C19.344 31.4865 25.3395 27.4412 31.0319 29.5098C32.6098 30.0832 32.533 30.394 32.4034 31.3613C32.2738 32.3286 30.8815 32.8015 29.9143 32.6718C25.0241 32.0165 22.5892 33.8858 21.9324 38.8073C21.8033 39.7746 20.9144 40.4541 19.9471 40.325C18.9798 40.1959 18.3003 39.3071 18.4294 38.3398Z" fill="white" stroke="black" stroke-width="1.5" stroke-linecap="round" stroke-linejoin="round"/>
<path fill-rule="evenodd" clip-rule="evenodd" d="M30.9133 30.0571C31.8763 29.8989 34.0719 30.3627 34.6123 31.5759C35.1527 32.7891 33.8424 32.4562 32.8794 32.6144C28.8291 33.2797 25.6864 35.6989 25.277 39.0994C25.1603 40.0683 24.2203 40.7418 23.2514 40.6252C22.2825 40.5085 21.3771 40.0683 21.4938 39.0994C22.1003 34.0616 25.3775 30.9666 30.9133 30.0571Z" fill="white" stroke="black" stroke-width="1.5" stroke-linecap="round" stroke-linejoin="round"/>
</g>
</svg>
