<svg width="68" height="68" viewBox="0 0 68 68" fill="none" xmlns="http://www.w3.org/2000/svg">
<rect opacity="0.9" width="68" height="68" rx="20" fill="#FFF2F6"/>
<mask id="mask0_3210_35650" style="mask-type:alpha" maskUnits="userSpaceOnUse" x="14" y="14" width="40" height="40">
<rect x="14" y="14" width="40" height="40" fill="#BDBDBD"/>
</mask>
<g mask="url(#mask0_3210_35650)">
<path fill-rule="evenodd" clip-rule="evenodd" d="M33.5305 24.3136C35.198 29.5768 32.2827 35.1959 27.0199 36.8638C21.7561 38.5313 16.137 35.616 14.4695 30.3528C12.802 25.0891 15.7169 19.4705 20.9801 17.803C26.2439 16.1351 31.8625 19.0504 33.5305 24.3136" fill="#FF4081"/>
<path d="M51.0563 28.9413C51.0786 28.9284 51.0862 28.8999 51.0734 28.8776V28.8776C49.6571 26.4246 46.5204 25.5841 44.0674 27.0004L25.2027 37.8919L27.7904 42.3739L51.0563 28.9413Z" fill="white" stroke="black" stroke-width="1.5" stroke-linecap="round" stroke-linejoin="round"/>
<path fill-rule="evenodd" clip-rule="evenodd" d="M21.4786 37.6517C19.0032 39.0809 18.1551 42.246 19.5842 44.7214C21.0134 47.1967 24.1786 48.0448 26.6539 46.6157C29.1292 45.1865 29.9773 42.0214 28.5482 39.546C27.1191 37.0707 23.9539 36.2226 21.4786 37.6517ZM23.2036 40.6398C22.3785 41.1162 22.0958 42.1712 22.5721 42.9963C23.0485 43.8214 24.1036 44.1041 24.9287 43.6278C25.7538 43.1514 26.0365 42.0963 25.5601 41.2712C25.0838 40.4461 24.0287 40.1634 23.2036 40.6398Z" fill="white"/>
<path d="M20.2338 44.3464C19.0117 42.2298 19.7369 39.5233 21.8536 38.3012L21.1036 37.0022C18.2695 38.6384 17.2985 42.2623 18.9347 45.0964L20.2338 44.3464ZM26.2789 45.9662C24.1623 47.1882 21.4558 46.463 20.2338 44.3464L18.9347 45.0964C20.571 47.9304 24.1948 48.9014 27.0289 47.2652L26.2789 45.9662ZM27.8987 39.921C29.1207 42.0376 28.3955 44.7441 26.2789 45.9662L27.0289 47.2652C29.8629 45.629 30.834 42.0051 29.1977 39.171L27.8987 39.921ZM21.8536 38.3012C23.9702 37.0792 26.6767 37.8044 27.8987 39.921L29.1977 39.171C27.5615 36.337 23.9376 35.366 21.1036 37.0022L21.8536 38.3012ZM23.2217 42.6213C22.9524 42.1549 23.1122 41.5586 23.5786 41.2893L22.8286 39.9903C21.6448 40.6737 21.2391 42.1875 21.9226 43.3713L23.2217 42.6213ZM24.5537 42.9782C24.0873 43.2475 23.4909 43.0877 23.2217 42.6213L21.9226 43.3713C22.6061 44.5551 24.1199 44.9608 25.3037 44.2773L24.5537 42.9782ZM24.9106 41.6462C25.1799 42.1126 25.0201 42.709 24.5537 42.9782L25.3037 44.2773C26.4875 43.5938 26.8931 42.08 26.2097 40.8962L24.9106 41.6462ZM23.5786 41.2893C24.045 41.02 24.6413 41.1798 24.9106 41.6462L26.2097 40.8962C25.5262 39.7124 24.0124 39.3068 22.8286 39.9903L23.5786 41.2893Z" fill="black"/>
<path d="M51.0932 40.7751C51.1146 40.7875 51.1219 40.8148 51.1096 40.8362V40.8362C49.75 43.1911 46.7388 43.998 44.3839 42.6384L24.983 31.4373L27.4671 27.1346L51.0932 40.7751Z" fill="white" stroke="black" stroke-width="1.5" stroke-linecap="round" stroke-linejoin="round"/>
<path fill-rule="evenodd" clip-rule="evenodd" d="M36.652 34.5482C36.652 35.1199 36.1885 35.5832 35.6166 35.5832C35.0447 35.5832 34.5818 35.1199 34.5818 34.5482C34.5818 33.9764 35.0447 33.5131 35.6166 33.5131C36.1885 33.5131 36.652 33.9764 36.652 34.5482" fill="black"/>
<path fill-rule="evenodd" clip-rule="evenodd" d="M26.7927 22.9207C24.3173 21.4915 21.1522 22.3396 19.723 24.815C18.2939 27.2903 19.142 30.4555 21.6173 31.8846C24.0927 33.3137 27.2578 32.4656 28.687 29.9903C30.1161 27.515 29.268 24.3498 26.7927 22.9207ZM25.0676 25.9086C24.2425 25.4322 23.1874 25.7149 22.7111 26.54C22.2347 27.3651 22.5174 28.4202 23.3425 28.8965C24.1676 29.3729 25.2227 29.0902 25.699 28.2651C26.1754 27.44 25.8927 26.3849 25.0676 25.9086Z" fill="white"/>
<path d="M20.3725 25.19C21.5946 23.0734 24.3011 22.3482 26.4177 23.5702L27.1677 22.2711C24.3336 20.6349 20.7097 21.6059 19.0735 24.44L20.3725 25.19ZM21.9923 31.2351C19.8757 30.0131 19.1505 27.3066 20.3725 25.19L19.0735 24.44C17.4373 27.274 18.4083 30.8979 21.2423 32.5341L21.9923 31.2351ZM28.0375 29.6153C26.8154 31.7319 24.1089 32.4571 21.9923 31.2351L21.2423 32.5341C24.0764 34.1704 27.7003 33.1993 29.3365 30.3653L28.0375 29.6153ZM26.4177 23.5702C28.5343 24.7922 29.2595 27.4987 28.0375 29.6153L29.3365 30.3653C30.9727 27.5313 30.0017 23.9074 27.1677 22.2711L26.4177 23.5702ZM23.3606 26.915C23.6298 26.4486 24.2262 26.2888 24.6926 26.5581L25.4426 25.259C24.2588 24.5756 22.745 24.9812 22.0615 26.165L23.3606 26.915ZM23.7175 28.247C23.2511 27.9777 23.0913 27.3814 23.3606 26.915L22.0615 26.165C21.3781 27.3488 21.7837 28.8626 22.9675 29.5461L23.7175 28.247ZM25.0495 27.8901C24.7803 28.3565 24.1839 28.5163 23.7175 28.247L22.9675 29.5461C24.1513 30.2295 25.6651 29.8239 26.3486 28.6401L25.0495 27.8901ZM24.6926 26.5581C25.159 26.8273 25.3188 27.4237 25.0495 27.8901L26.3486 28.6401C27.032 27.4563 26.6264 25.9425 25.4426 25.259L24.6926 26.5581Z" fill="black"/>
</g>
</svg>
