<svg width="68" height="68" viewBox="0 0 68 68" fill="none" xmlns="http://www.w3.org/2000/svg">
<rect width="68" height="68" rx="20" fill="#FFF3F7"/>
<mask id="mask0_3210_35754" style="mask-type:alpha" maskUnits="userSpaceOnUse" x="14" y="14" width="40" height="40">
<rect x="14" y="14" width="40" height="40" fill="#BDBDBD"/>
</mask>
<g mask="url(#mask0_3210_35754)">
<circle cx="34" cy="26.9369" r="10.8333" fill="#FF4081"/>
<path fill-rule="evenodd" clip-rule="evenodd" d="M23.768 31.8644C23.768 31.8644 20.9138 26.9897 24.7367 22.3843C27.0081 19.4319 22.6553 17.2304 20.7945 23.5152C18.8204 22.2331 16.7671 23.8171 19.3938 27.7955C16.6443 26.9364 16.6253 31.1664 22.4343 34.1744" fill="white"/>
<path d="M23.768 31.8644C23.768 31.8644 20.9138 26.9897 24.7367 22.3843C27.0081 19.4319 22.6553 17.2304 20.7945 23.5152C18.8204 22.2331 16.7671 23.8171 19.3938 27.7955C16.6443 26.9364 16.6253 31.1664 22.4343 34.1744" stroke="black" stroke-width="1.5" stroke-linecap="round" stroke-linejoin="round"/>
<path fill-rule="evenodd" clip-rule="evenodd" d="M23.5652 51.594H26.9958V50.8386C26.9958 50.2183 26.4929 49.7154 25.8726 49.7154V49.7154C25.8673 49.7154 25.863 49.713 25.8633 49.7077C25.877 49.5047 26.1562 45.3501 26.2244 44.8209C29.9748 44.2516 30.4918 40.1971 30.4918 40.1971C30.4918 40.1971 34.6792 43.61 38.0178 43.61C38.0964 50.9082 38.0178 51.594 38.0178 51.594H42.0219V51.2624C42.0219 50.408 41.3293 49.7154 40.4749 49.7154V49.7154C40.4665 49.7154 40.4604 49.7072 40.4628 49.6991L45.8672 31.7776C45.8672 31.7776 48.104 31.7776 49.256 31.7776C52.7746 31.7776 53.1668 26.7029 53.1668 26.7029L50.7161 25.9374C50.7161 25.9374 50.1298 22.7892 49.0833 22.7892C48.0368 22.7892 43.695 21.6967 43.695 21.6967L38.7995 30.902C38.7995 30.902 26.8148 29.363 23.3055 33.4809C23.1694 33.6406 23.029 33.7955 22.9064 33.9659C20.6532 37.0974 23.5652 51.594 23.5652 51.594Z" fill="white" stroke="black" stroke-width="1.5" stroke-linecap="round" stroke-linejoin="round"/>
<path fill-rule="evenodd" clip-rule="evenodd" d="M45.5321 21.5368V24.2533C45.5321 25.5197 44.4107 26.5463 43.0274 26.5463C41.644 26.5463 40.5226 25.5197 40.5226 24.2533V21.5368H45.5321Z" fill="white" stroke="black" stroke-width="1.5" stroke-linecap="round" stroke-linejoin="round"/>
<path fill-rule="evenodd" clip-rule="evenodd" d="M39.1001 28.6036C39.1848 28.5917 39.2687 28.5894 39.3506 28.596C39.632 28.612 39.9056 28.7318 40.11 28.9462L40.202 29.0557L45.644 36.4141C46.0178 36.9197 45.9111 37.6326 45.4055 38.0065C44.9389 38.3516 44.2955 38.2872 43.9052 37.8776L43.8132 37.7681L38.7703 30.9494L34.7568 31.5134L37.972 43.2035C38.1387 43.8098 37.7824 44.4365 37.1761 44.6032C36.6132 44.758 36.0326 44.4619 35.819 43.9334L35.7764 43.8074L32.239 30.9458C32.0863 30.3905 32.3723 29.8182 32.8873 29.5977C32.9937 29.5243 33.1138 29.4683 33.2441 29.4343L33.3745 29.4082L39.1001 28.6036Z" fill="#FF4081"/>
<path d="M39.3506 28.596L39.2907 29.3436C39.2965 29.344 39.3023 29.3444 39.3081 29.3448L39.3506 28.596ZM39.1001 28.6036L39.2045 29.3463L39.2045 29.3463L39.1001 28.6036ZM40.11 28.9462L40.6842 28.4637C40.6741 28.4518 40.6637 28.4401 40.6529 28.4288L40.11 28.9462ZM40.202 29.0557L40.805 28.6098C40.7958 28.5973 40.7862 28.5851 40.7762 28.5733L40.202 29.0557ZM45.644 36.4141L46.247 35.9682L46.247 35.9682L45.644 36.4141ZM45.4055 38.0065L44.9596 37.4035L44.9596 37.4035L45.4055 38.0065ZM43.9052 37.8776L43.331 38.3601C43.3411 38.3721 43.3515 38.3837 43.3623 38.395L43.9052 37.8776ZM43.8132 37.7681L43.2102 38.214C43.2194 38.2265 43.229 38.2387 43.239 38.2506L43.8132 37.7681ZM38.7703 30.9494L39.3733 30.5034C39.2098 30.2823 38.9383 30.1684 38.6659 30.2067L38.7703 30.9494ZM34.7568 31.5134L34.6524 30.7707C34.4388 30.8007 34.2485 30.9213 34.13 31.1015C34.0116 31.2818 33.9764 31.5043 34.0336 31.7123L34.7568 31.5134ZM37.972 43.2035L38.6951 43.0046L38.6951 43.0046L37.972 43.2035ZM37.1761 44.6032L36.9772 43.8801L36.9772 43.8801L37.1761 44.6032ZM35.819 43.9334L35.1085 44.1736C35.1132 44.1873 35.1182 44.2009 35.1237 44.2143L35.819 43.9334ZM35.7764 43.8074L35.0533 44.0063C35.0571 44.0201 35.0613 44.0339 35.0659 44.0476L35.7764 43.8074ZM32.239 30.9458L31.5159 31.1447L31.5159 31.1447L32.239 30.9458ZM32.8873 29.5977L33.1825 30.2871C33.2283 30.2675 33.272 30.2434 33.313 30.2151L32.8873 29.5977ZM33.2441 29.4343L33.0971 28.6989C33.0829 28.7017 33.0688 28.705 33.0547 28.7086L33.2441 29.4343ZM33.3745 29.4082L33.2702 28.6655C33.2559 28.6676 33.2417 28.67 33.2275 28.6728L33.3745 29.4082ZM39.4106 27.8484C39.2742 27.8374 39.1353 27.8413 38.9957 27.8609L39.2045 29.3463C39.2344 29.3421 39.2632 29.3414 39.2907 29.3436L39.4106 27.8484ZM40.6529 28.4288C40.3127 28.0718 39.8581 27.8736 39.3932 27.8472L39.3081 29.3448C39.4059 29.3503 39.4986 29.3918 39.567 29.4636L40.6529 28.4288ZM40.7762 28.5733L40.6842 28.4637L39.5358 29.4287L39.6278 29.5382L40.7762 28.5733ZM46.247 35.9682L40.805 28.6098L39.599 29.5017L45.0409 36.8601L46.247 35.9682ZM45.8515 38.6095C46.6901 37.9893 46.8671 36.8067 46.247 35.9682L45.0409 36.8601C45.1685 37.0326 45.1321 37.2759 44.9596 37.4035L45.8515 38.6095ZM43.3623 38.395C44.0102 39.075 45.077 39.1823 45.8515 38.6095L44.9596 37.4035C44.8008 37.5209 44.5808 37.4995 44.4482 37.3602L43.3623 38.395ZM43.239 38.2506L43.331 38.3601L44.4794 37.3952L44.3874 37.2856L43.239 38.2506ZM38.1673 31.3953L43.2102 38.214L44.4162 37.3221L39.3733 30.5034L38.1673 31.3953ZM34.8612 32.2561L38.8747 31.6921L38.6659 30.2067L34.6524 30.7707L34.8612 32.2561ZM34.0336 31.7123L37.2488 43.4024L38.6951 43.0046L35.4799 31.3145L34.0336 31.7123ZM37.2488 43.4024C37.3057 43.6093 37.1841 43.8232 36.9772 43.8801L37.375 45.3264C38.3807 45.0498 38.9717 44.0103 38.6951 43.0046L37.2488 43.4024ZM36.9772 43.8801C36.7856 43.9328 36.587 43.832 36.5144 43.6524L35.1237 44.2143C35.4782 45.0918 36.4407 45.5833 37.375 45.3264L36.9772 43.8801ZM36.5295 43.6931L36.4869 43.5672L35.0659 44.0476L35.1085 44.1736L36.5295 43.6931ZM36.4996 43.6085L32.9622 30.7469L31.5159 31.1447L35.0533 44.0063L36.4996 43.6085ZM32.9622 30.7469C32.9102 30.558 33.0075 30.3621 33.1825 30.2871L32.5921 28.9082C31.7372 29.2742 31.2624 30.223 31.5159 31.1447L32.9622 30.7469ZM33.0547 28.7086C32.8383 28.7651 32.6384 28.8583 32.4616 28.9802L33.313 30.2151C33.3489 30.1904 33.3892 30.1716 33.4335 30.16L33.0547 28.7086ZM33.2275 28.6728L33.0971 28.6989L33.3911 30.1698L33.5215 30.1437L33.2275 28.6728ZM38.9957 27.8609L33.2702 28.6655L33.4789 30.1509L39.2045 29.3463L38.9957 27.8609Z" fill="black"/>
<path d="M37.5347 28.5941L23.7888 15.2702" stroke="black" stroke-width="1.5" stroke-linecap="round" stroke-linejoin="round"/>
</g>
</svg>
