<svg width="68" height="68" viewBox="0 0 68 68" fill="none" xmlns="http://www.w3.org/2000/svg">
<rect opacity="0.9" width="68" height="68" rx="20" fill="#FFF2F6"/>
<mask id="mask0_3210_35594" style="mask-type:alpha" maskUnits="userSpaceOnUse" x="14" y="14" width="40" height="40">
<rect x="14" y="14" width="40" height="40" fill="#BDBDBD"/>
</mask>
<g mask="url(#mask0_3210_35594)">
<path fill-rule="evenodd" clip-rule="evenodd" d="M36.8247 30.7286C38.6312 36.4305 35.4729 42.5178 29.7715 44.3247C24.0691 46.1312 17.9818 42.9729 16.1753 37.2711C14.3689 31.5687 17.5266 25.482 23.2285 23.6755C28.9309 21.8686 35.0177 25.0268 36.8247 30.7286" fill="#FF4081"/>
<path fill-rule="evenodd" clip-rule="evenodd" d="M25.4928 41.8696C25.663 41.747 25.8674 41.6811 26.0771 41.6811L41.923 41.6811C42.1327 41.6811 42.3371 41.747 42.5073 41.8696L50.6507 47.7328C51.4386 48.3001 51.0373 49.5444 50.0663 49.5444H17.9337C16.9628 49.5444 16.5614 48.3001 17.3494 47.7328L25.4928 41.8696Z" fill="white" stroke="black" stroke-width="1.5" stroke-linecap="round" stroke-linejoin="round"/>
<path fill-rule="evenodd" clip-rule="evenodd" d="M29.3942 29.1455C29.3942 29.1455 27.1542 25.3197 30.1545 21.7053C31.9371 19.3881 28.5209 17.6604 27.0605 22.5928C25.5112 21.5866 23.8997 22.8298 25.9612 25.9521C23.8033 25.2778 23.7884 28.5977 28.3475 30.9585" fill="white"/>
<path d="M29.3942 29.1455C29.3942 29.1455 27.1542 25.3197 30.1545 21.7053C31.9371 19.3881 28.5209 17.6604 27.0605 22.5928C25.5112 21.5866 23.8997 22.8298 25.9612 25.9521C23.8033 25.2778 23.7884 28.5977 28.3475 30.9585" stroke="black" stroke-width="1.5" stroke-linecap="round" stroke-linejoin="round"/>
<path fill-rule="evenodd" clip-rule="evenodd" d="M29.235 44.8257H31.9274V44.036C31.9274 43.5497 31.5332 43.1555 31.0469 43.1555V43.1555C31.0422 43.1555 31.0385 43.1515 31.0389 43.1468L31.6393 35.4151C31.6393 35.4151 34.8025 38.3638 40.5778 38.3638C40.6395 44.0916 40.5778 44.8257 40.5778 44.8257H43.7203V44.3681C43.7203 43.6984 43.1774 43.1555 42.5077 43.1555V43.1555C42.5003 43.1555 42.495 43.1483 42.4972 43.1412L46.4752 29.9709C46.4752 29.9709 48.7193 29.9709 49.3072 29.9709C52.0687 29.9709 52.3765 25.0946 52.3765 25.0946L50.5438 24.4938C50.5438 24.4938 50.0837 22.023 49.2623 22.023C48.441 22.023 45.0334 21.1656 45.0334 21.1656L41.1913 28.3902H31.8602C29.9707 28.3902 28.467 29.9736 28.5646 31.8606L29.235 44.8257Z" fill="white" stroke="black" stroke-width="1.5" stroke-linecap="round" stroke-linejoin="round"/>
<path fill-rule="evenodd" clip-rule="evenodd" d="M46.4753 21.0401V23.172C46.4753 24.166 45.5951 24.9717 44.5095 24.9717C43.4238 24.9717 42.5436 24.166 42.5436 23.172V21.0401H46.4753Z" fill="white" stroke="black" stroke-width="1.5" stroke-linecap="round" stroke-linejoin="round"/>
<path fill-rule="evenodd" clip-rule="evenodd" d="M32.8333 35.7539C32.8333 35.7539 29.7355 38.6471 25.6747 36.3026C23.9683 36.8683 23.0086 37.2142 22.8982 37.2541C22.8923 37.2563 22.8897 37.2629 22.8922 37.2686V37.2686C23.2437 38.051 22.6713 38.9357 21.8136 38.9357L21.5516 38.9357L20.7498 36.1547L30.4165 30.9651" fill="white"/>
<path d="M32.8333 35.7539C32.8333 35.7539 29.7355 38.6471 25.6747 36.3026C23.9683 36.8683 23.0086 37.2142 22.8982 37.2541C22.8923 37.2563 22.8897 37.2629 22.8922 37.2686V37.2686C23.2437 38.051 22.6713 38.9357 21.8136 38.9357L21.5516 38.9357L20.7498 36.1547L30.4165 30.9651" stroke="black" stroke-width="1.5" stroke-linecap="round" stroke-linejoin="round"/>
</g>
</svg>
