<svg width="20" height="18" viewBox="0 0 20 18" fill="none" xmlns="http://www.w3.org/2000/svg">
<path d="M18.172 1.87908C17.1119 0.816287 15.7068 0.167619 14.2103 0.0502491C12.7138 -0.067121 11.2247 0.354545 10.012 1.23908C8.73963 0.292717 7.15597 -0.13641 5.5799 0.0381165C4.00383 0.212643 2.55242 0.977857 1.51795 2.17966C0.483485 3.38147 -0.0571993 4.9306 0.00477952 6.51509C0.0667583 8.09959 0.726796 9.60175 1.85198 10.7191L8.06198 16.9391C8.582 17.4509 9.28236 17.7377 10.012 17.7377C10.7416 17.7377 11.442 17.4509 11.962 16.9391L18.172 10.7191C19.3396 9.54435 19.9949 7.95535 19.9949 6.29908C19.9949 4.64281 19.3396 3.05381 18.172 1.87908Z" fill="#FF4081"/>
</svg>
