<svg width="21" height="18" viewBox="0 0 21 18" fill="none" xmlns="http://www.w3.org/2000/svg">
<path d="M10.7016 1.7612L10.9971 1.98099L11.2946 1.76398C12.411 0.949759 13.7817 0.561612 15.1592 0.669652C16.5366 0.777685 17.83 1.37471 18.8058 2.3529C19.88 3.43392 20.4829 4.89601 20.4829 6.42001C20.4829 7.94404 19.8799 9.40617 18.8057 10.4872C18.8056 10.4873 18.8055 10.4874 18.8053 10.4875L12.5993 16.7036C12.5987 16.7041 12.5982 16.7046 12.5977 16.7051C12.1714 17.1239 11.5976 17.3586 11 17.3586C10.4023 17.3586 9.82854 17.1239 9.40221 16.7051C9.4017 16.7046 9.4012 16.7041 9.40069 16.7036L3.19381 10.4867L3.19228 10.4852C2.15683 9.45699 1.54943 8.07462 1.49239 6.61648C1.43535 5.15835 1.93292 3.73275 2.88489 2.62678C3.83687 1.52081 5.17253 0.816621 6.62292 0.656013C8.07331 0.495404 9.53069 0.89031 10.7016 1.7612ZM18.1035 9.81357L18.25 9.66712V9.62372C19.0261 8.73605 19.4493 7.59087 19.4335 6.40703C19.4168 5.15483 18.9103 3.95896 18.0227 3.07559L18.0213 3.07421C17.1285 2.19281 15.9245 1.69858 14.67 1.69858C13.4154 1.69858 12.2114 2.19281 11.3187 3.07421L11.3187 3.07419L11.315 3.07791C11.2685 3.12478 11.2132 3.16197 11.1523 3.18736C11.0913 3.21274 11.026 3.22581 10.96 3.22581C10.894 3.22581 10.8286 3.21274 10.7677 3.18736C10.7068 3.16197 10.6515 3.12478 10.605 3.07791L10.605 3.07789L10.6013 3.07421C9.70852 2.19281 8.5045 1.69858 7.24997 1.69858C5.99544 1.69858 4.79142 2.19281 3.89868 3.07421L3.89863 3.07415L3.89256 3.08036C3.01691 3.97545 2.52658 5.17784 2.52658 6.43001C2.52658 7.68219 3.01691 8.88458 3.89256 9.77966L3.89254 9.77968L3.89557 9.78271L10.1047 16.0218C10.1049 16.022 10.1051 16.0222 10.1053 16.0224C10.2223 16.1405 10.3616 16.2342 10.515 16.2981C10.6686 16.3622 10.8335 16.3952 11 16.3952C11.1665 16.3952 11.3313 16.3622 11.485 16.2981C11.6381 16.2343 11.7772 16.1407 11.8941 16.023C11.8945 16.0226 11.8949 16.0222 11.8952 16.0218L18.1035 9.81357Z" stroke="#FF4081"/>
</svg>
