<svg width="26" height="26" viewBox="0 0 26 26" fill="none" xmlns="http://www.w3.org/2000/svg">
<path d="M8 6C8 5.0111 8.29325 4.0444 8.84265 3.22215C9.39206 2.39991 10.173 1.75904 11.0866 1.3806C12.0002 1.00217 13.0055 0.90315 13.9755 1.09608C14.9454 1.289 15.8363 1.76521 16.5355 2.46447C17.2348 3.16373 17.711 4.05465 17.9039 5.02455C18.0969 5.99446 17.9978 6.99979 17.6194 7.91342C17.241 8.82705 16.6001 9.60794 15.7779 10.1574C14.9556 10.7068 13.9889 11 13 11C11.6739 11 10.4021 10.4732 9.46447 9.53554C8.52678 8.59785 8 7.32609 8 6ZM3 25C2.46957 25 1.96086 24.7893 1.58579 24.4142C1.21071 24.0391 1 23.5304 1 23C1 20.8783 1.84285 18.8434 3.34315 17.3431C4.84344 15.8429 6.87827 15 9 15H17C19.1217 15 21.1566 15.8429 22.6569 17.3431C24.1571 18.8434 25 20.8783 25 23C25 23.5304 24.7893 24.0391 24.4142 24.4142C24.0391 24.7893 23.5304 25 23 25H3Z" stroke="#FF4081" stroke-width="2"/>
</svg>
