<svg width="26" height="26" viewBox="0 0 26 26" fill="none" xmlns="http://www.w3.org/2000/svg">
<path d="M6.93259 8.64722H7.21582H8.07082H17.9292H18.7842H19.0674H19.6627H22.5335C22.6832 8.64722 22.8888 8.7209 23.0633 8.87492C23.2465 9.03654 23.2665 9.16615 23.2665 9.17638V9.23287L23.2729 9.289L24.996 24.4919C24.9844 24.5366 24.9415 24.6444 24.7967 24.7722C24.6221 24.9263 24.4164 25 24.2665 25H1.73347C1.58358 25 1.37792 24.9263 1.20331 24.7722C1.05852 24.6444 1.01561 24.5366 1.00397 24.4919L2.72711 9.289L2.73347 9.23287V9.17638C2.73347 9.16616 2.75349 9.03657 2.93666 8.87498C3.11122 8.72098 3.31692 8.64722 3.46694 8.64722H6.33734H6.93259Z" stroke="#FF4081" stroke-width="2"/>
</svg>
